<svg width="631" height="313" viewBox="0 0 631 313" fill="none" xmlns="http://www.w3.org/2000/svg">
<g clip-path="url(#clip0)">
<rect width="631" height="313" fill="white"/>
<path d="M420.543 21.1307H424.139V31H426.23V21.1307H429.827V19.3636H420.543V21.1307ZM431.526 31H433.582V22.2727H431.526V31ZM432.56 21.1023C433.196 21.1023 433.747 20.6136 433.747 19.9886C433.747 19.358 433.196 18.8693 432.56 18.8693C431.918 18.8693 431.366 19.358 431.366 19.9886C431.366 20.6136 431.918 21.1023 432.56 21.1023ZM435.697 31H437.754V25.6932C437.754 24.6193 438.47 23.892 439.357 23.892C440.226 23.892 440.822 24.4773 440.822 25.375V31H442.839V25.5568C442.839 24.5739 443.425 23.892 444.419 23.892C445.249 23.892 445.908 24.3807 445.908 25.4602V31H447.97V25.142C447.97 23.1932 446.845 22.1591 445.243 22.1591C443.976 22.1591 443.01 22.7841 442.624 23.7557H442.533C442.197 22.767 441.351 22.1591 440.175 22.1591C439.004 22.1591 438.129 22.7614 437.766 23.7557H437.663V22.2727H435.697V31ZM453.943 31.1705C455.972 31.1705 457.375 30.1761 457.739 28.6591L455.812 28.4432C455.534 29.1818 454.858 29.5682 453.966 29.5682C452.636 29.5682 451.756 28.6932 451.739 27.1989H457.818V26.5682C457.818 23.5057 455.977 22.1591 453.83 22.1591C451.33 22.1591 449.699 23.9943 449.699 26.6875C449.699 29.4261 451.307 31.1705 453.943 31.1705ZM451.744 25.8125C451.812 24.6989 452.631 23.7614 453.858 23.7614C455.045 23.7614 455.841 24.625 455.847 25.8125H451.744ZM474.03 25.1818C474.03 21.4205 471.734 19.2045 468.683 19.2045C465.626 19.2045 463.337 21.4205 463.337 25.1818C463.337 28.9375 465.626 31.1591 468.683 31.1591C471.734 31.1591 474.03 28.9432 474.03 25.1818ZM471.911 25.1818C471.911 27.8295 470.581 29.267 468.683 29.267C466.791 29.267 465.456 27.8295 465.456 25.1818C465.456 22.5341 466.791 21.0966 468.683 21.0966C470.581 21.0966 471.911 22.5341 471.911 25.1818ZM475.932 31H477.989V25.8693C477.989 24.767 478.818 23.9886 479.892 23.9886C480.227 23.9886 480.483 24.0682 480.705 24.1705L481.341 22.4659C481.034 22.2727 480.642 22.1477 480.17 22.1477C479.165 22.1477 478.335 22.7159 478.017 23.7273H477.926V22.2727H475.932V31ZM482.557 31H484.614V22.2727H482.557V31ZM483.591 21.1023C484.227 21.1023 484.778 20.6136 484.778 19.9886C484.778 19.358 484.227 18.8693 483.591 18.8693C482.949 18.8693 482.398 19.358 482.398 19.9886C482.398 20.6136 482.949 21.1023 483.591 21.1023ZM490.615 31.1705C492.643 31.1705 494.047 30.1761 494.411 28.6591L492.484 28.4432C492.206 29.1818 491.53 29.5682 490.638 29.5682C489.308 29.5682 488.428 28.6932 488.411 27.1989H494.49V26.5682C494.49 23.5057 492.649 22.1591 490.501 22.1591C488.001 22.1591 486.371 23.9943 486.371 26.6875C486.371 29.4261 487.979 31.1705 490.615 31.1705ZM488.416 25.8125C488.484 24.6989 489.303 23.7614 490.53 23.7614C491.717 23.7614 492.513 24.625 492.518 25.8125H488.416ZM498.301 25.8864C498.301 24.625 499.062 23.8977 500.148 23.8977C501.21 23.8977 501.847 24.5966 501.847 25.7614V31H503.903V25.4432C503.909 23.3523 502.716 22.1591 500.915 22.1591C499.608 22.1591 498.71 22.7841 498.312 23.7557H498.21V22.2727H496.244V31H498.301V25.8864ZM510.352 22.2727H508.631V20.1818H506.574V22.2727H505.335V23.8636H506.574V28.6989C506.562 30.3466 507.756 31.1534 509.301 31.1023C509.886 31.0909 510.29 30.9773 510.511 30.8977L510.165 29.2955C510.051 29.3182 509.818 29.375 509.562 29.375C509.045 29.375 508.625 29.1875 508.631 28.3636V23.8636H510.352V22.2727ZM514.646 31.1761C516.016 31.1761 516.834 30.5341 517.209 29.8011H517.277V31H519.254V25.1591C519.254 22.8523 517.362 22.1591 515.737 22.1591C513.862 22.1591 512.464 22.9773 512.01 24.5682L513.93 24.8409C514.135 24.2443 514.714 23.733 515.72 23.733C516.686 23.733 517.192 24.2273 517.197 25.0909C517.203 25.6648 516.618 25.7273 515.192 25.8807C515.141 25.8864 515.089 25.892 515.038 25.8977C513.345 26.0795 511.726 26.5852 511.726 28.5511C511.726 30.267 512.982 31.1761 514.646 31.1761ZM515.18 29.6648C514.322 29.6648 513.709 29.2727 513.709 28.517C513.709 27.7273 514.396 27.3977 515.317 27.267C515.857 27.1932 516.936 27.0568 517.203 26.8409V27.8693C517.203 28.8409 516.419 29.6648 515.18 29.6648ZM525.68 22.2727H523.959V20.1818H521.902V22.2727H520.663V23.8636H521.902V28.6989C521.891 30.3466 523.084 31.1534 524.629 31.1023C525.214 31.0909 525.618 30.9773 525.839 30.8977L525.493 29.2955C525.379 29.3182 525.146 29.375 524.891 29.375C524.374 29.375 523.953 29.1875 523.959 28.3636V23.8636H525.68V22.2727ZM527.463 31H529.52V22.2727H527.463V31ZM528.497 21.1023C529.134 21.1023 529.685 20.6136 529.685 19.9886C529.685 19.358 529.134 18.8693 528.497 18.8693C527.855 18.8693 527.304 19.358 527.304 19.9886C527.304 20.6136 527.855 21.1023 528.497 21.1023ZM535.459 31.1705C538.016 31.1705 539.641 29.3693 539.641 26.6705C539.641 23.9659 538.016 22.1591 535.459 22.1591C532.908 22.1591 531.277 23.9659 531.277 26.6705C531.277 29.3693 532.908 31.1705 535.459 31.1705ZM535.47 29.5227C534.055 29.5227 533.362 28.2614 533.362 26.6648C533.362 25.0682 534.055 23.7898 535.47 23.7898C536.862 23.7898 537.555 25.0682 537.555 26.6648C537.555 28.2614 536.862 29.5227 535.47 29.5227ZM543.457 25.8864C543.457 24.625 544.219 23.8977 545.304 23.8977C546.366 23.8977 547.003 24.5966 547.003 25.7614V31H549.06V25.4432C549.065 23.3523 547.872 22.1591 546.071 22.1591C544.764 22.1591 543.866 22.7841 543.469 23.7557H543.366V22.2727H541.401V31H543.457V25.8864Z" fill="#636363"/>
<path d="M466.034 283H467.878V278.675H472.109V277.129H467.878V274.364H472.556V272.818H466.034V283ZM478.546 279.788C478.546 280.952 477.716 281.528 476.92 281.528C476.055 281.528 475.478 280.917 475.478 279.947V275.364H473.679V280.226C473.679 282.06 474.723 283.099 476.224 283.099C477.368 283.099 478.173 282.498 478.521 281.643H478.6V283H480.346V275.364H478.546V279.788ZM486.009 275.364H484.503V273.534H482.703V275.364H481.619V276.756H482.703V280.987C482.693 282.428 483.737 283.134 485.09 283.089C485.602 283.08 485.955 282.98 486.149 282.911L485.845 281.509C485.746 281.528 485.542 281.578 485.318 281.578C484.866 281.578 484.498 281.414 484.503 280.693V276.756H486.009V275.364ZM492.436 279.788C492.436 280.952 491.606 281.528 490.811 281.528C489.946 281.528 489.369 280.917 489.369 279.947V275.364H487.569V280.226C487.569 282.06 488.613 283.099 490.115 283.099C491.258 283.099 492.064 282.498 492.412 281.643H492.491V283H494.236V275.364H492.436V279.788ZM496.087 283H497.887V278.511C497.887 277.546 498.612 276.865 499.552 276.865C499.845 276.865 500.069 276.935 500.263 277.024L500.82 275.533C500.551 275.364 500.208 275.254 499.796 275.254C498.916 275.254 498.19 275.751 497.911 276.636H497.832V275.364H496.087V283ZM504.97 283.149C506.745 283.149 507.973 282.279 508.291 280.952L506.605 280.763C506.362 281.409 505.77 281.747 504.99 281.747C503.826 281.747 503.056 280.982 503.041 279.674H508.36V279.122C508.36 276.442 506.75 275.264 504.87 275.264C502.683 275.264 501.256 276.87 501.256 279.227C501.256 281.623 502.663 283.149 504.97 283.149ZM503.046 278.461C503.105 277.487 503.821 276.666 504.895 276.666C505.934 276.666 506.63 277.422 506.635 278.461H503.046Z" fill="#636363"/>
<path d="M461.638 77H463.483V73.5597H465.431C467.783 73.5597 469.051 72.1428 469.046 70.1889C469.051 68.2401 467.798 66.8182 465.456 66.8182H461.638V77ZM463.483 72.0433V68.3594H465.173C466.555 68.3594 467.171 69.1151 467.166 70.1889C467.171 71.2827 466.555 72.0433 465.183 72.0433H463.483ZM470.568 77H472.368V72.5107C472.368 71.5462 473.094 70.8651 474.033 70.8651C474.327 70.8651 474.551 70.9347 474.744 71.0241L475.301 69.5327C475.033 69.3636 474.69 69.2543 474.277 69.2543C473.397 69.2543 472.671 69.7514 472.393 70.6364H472.313V69.3636H470.568V77ZM479.451 77.1491C481.226 77.1491 482.454 76.2791 482.772 74.9517L481.087 74.7628C480.843 75.4091 480.252 75.7472 479.471 75.7472C478.308 75.7472 477.537 74.9815 477.522 73.674H482.842V73.1222C482.842 70.4425 481.231 69.2642 479.352 69.2642C477.164 69.2642 475.737 70.87 475.737 73.2266C475.737 75.6229 477.144 77.1491 479.451 77.1491ZM477.527 72.4609C477.587 71.4865 478.303 70.6662 479.377 70.6662C480.416 70.6662 481.112 71.4219 481.117 72.4609H477.527ZM490.412 71.3821C490.164 70.0895 489.13 69.2642 487.34 69.2642C485.5 69.2642 484.248 70.169 484.253 71.581C484.248 72.6946 484.934 73.4304 486.4 73.7337L487.703 74.0071C488.404 74.1612 488.732 74.4446 488.732 74.8771C488.732 75.3991 488.165 75.7919 487.31 75.7919C486.485 75.7919 485.948 75.4339 485.794 74.7479L484.039 74.9169C484.263 76.3189 485.441 77.1491 487.315 77.1491C489.224 77.1491 490.571 76.1598 490.576 74.7131C490.571 73.6243 489.87 72.9581 488.429 72.6449L487.126 72.3665C486.351 72.1925 486.042 71.924 486.047 71.4815C486.042 70.9645 486.614 70.6065 487.365 70.6065C488.195 70.6065 488.633 71.0589 488.772 71.5611L490.412 71.3821ZM495.461 77.1491C497.236 77.1491 498.464 76.2791 498.782 74.9517L497.097 74.7628C496.853 75.4091 496.261 75.7472 495.481 75.7472C494.318 75.7472 493.547 74.9815 493.532 73.674H498.852V73.1222C498.852 70.4425 497.241 69.2642 495.362 69.2642C493.174 69.2642 491.747 70.87 491.747 73.2266C491.747 75.6229 493.154 77.1491 495.461 77.1491ZM493.537 72.4609C493.597 71.4865 494.313 70.6662 495.386 70.6662C496.426 70.6662 497.122 71.4219 497.127 72.4609H493.537ZM502.186 72.5256C502.186 71.4219 502.853 70.7855 503.802 70.7855C504.732 70.7855 505.289 71.397 505.289 72.4162V77H507.088V72.1378C507.093 70.3082 506.049 69.2642 504.473 69.2642C503.33 69.2642 502.544 69.8111 502.196 70.6612H502.107V69.3636H500.387V77H502.186V72.5256ZM512.731 69.3636H511.225V67.5341H509.425V69.3636H508.341V70.7557H509.425V74.9865C509.415 76.4283 510.459 77.1342 511.811 77.0895C512.323 77.0795 512.676 76.9801 512.87 76.9105L512.567 75.5085C512.468 75.5284 512.264 75.5781 512.04 75.5781C511.588 75.5781 511.22 75.4141 511.225 74.6932V70.7557H512.731V69.3636Z" fill="#636363"/>
<rect x="485" y="95" width="2" height="161" rx="1" fill="#636363"/>
<path d="M494 248.727L486.736 256.579C486.34 257.008 485.662 257.007 485.266 256.577L478 248.679" stroke="#636363" stroke-width="2" stroke-linecap="round"/>
<path d="M152.786 19.3636V27.0057C152.786 28.4432 151.632 29.2784 150.166 29.2784C148.706 29.2784 147.553 28.4432 147.553 27.0057V19.3636H145.445V27.0568C145.445 29.6932 147.467 31.1761 150.166 31.1761C152.854 31.1761 154.888 29.6932 154.888 27.0568V19.3636H152.786ZM159.145 25.8864C159.145 24.625 159.906 23.8977 160.991 23.8977C162.054 23.8977 162.69 24.5966 162.69 25.7614V31H164.747V25.4432C164.753 23.3523 163.56 22.1591 161.759 22.1591C160.452 22.1591 159.554 22.7841 159.156 23.7557H159.054V22.2727H157.088V31H159.145V25.8864ZM174.719 31V19.3636H172.662V23.7159H172.577C172.264 23.0852 171.622 22.1591 170.082 22.1591C168.065 22.1591 166.48 23.7386 166.48 26.6477C166.48 29.5227 168.02 31.1534 170.077 31.1534C171.577 31.1534 172.253 30.2614 172.577 29.625H172.696V31H174.719ZM172.702 26.6364C172.702 28.3295 171.963 29.4659 170.651 29.4659C169.293 29.4659 168.577 28.2727 168.577 26.6364C168.577 25.0114 169.281 23.8466 170.651 23.8466C171.974 23.8466 172.702 24.9432 172.702 26.6364ZM180.724 31.1705C182.753 31.1705 184.156 30.1761 184.52 28.6591L182.594 28.4432C182.315 29.1818 181.639 29.5682 180.747 29.5682C179.418 29.5682 178.537 28.6932 178.52 27.1989H184.599V26.5682C184.599 23.5057 182.759 22.1591 180.611 22.1591C178.111 22.1591 176.48 23.9943 176.48 26.6875C176.48 29.4261 178.088 31.1705 180.724 31.1705ZM178.526 25.8125C178.594 24.6989 179.412 23.7614 180.639 23.7614C181.827 23.7614 182.622 24.625 182.628 25.8125H178.526ZM186.354 31H188.411V25.8693C188.411 24.767 189.24 23.9886 190.314 23.9886C190.649 23.9886 190.905 24.0682 191.126 24.1705L191.763 22.4659C191.456 22.2727 191.064 22.1477 190.592 22.1477C189.587 22.1477 188.757 22.7159 188.439 23.7273H188.348V22.2727H186.354V31ZM199.876 24.5795C199.592 23.1023 198.411 22.1591 196.365 22.1591C194.263 22.1591 192.831 23.1932 192.837 24.8068C192.831 26.0795 193.615 26.9205 195.291 27.267L196.78 27.5795C197.581 27.7557 197.956 28.0795 197.956 28.5739C197.956 29.1705 197.308 29.6193 196.331 29.6193C195.388 29.6193 194.774 29.2102 194.598 28.4261L192.592 28.6193C192.848 30.2216 194.195 31.1705 196.337 31.1705C198.518 31.1705 200.058 30.0398 200.064 28.3864C200.058 27.142 199.257 26.3807 197.609 26.0227L196.121 25.7045C195.234 25.5057 194.882 25.1989 194.888 24.6932C194.882 24.1023 195.536 23.6932 196.393 23.6932C197.342 23.6932 197.842 24.2102 198.001 24.7841L199.876 24.5795ZM206.118 22.2727H204.396V20.1818H202.339V22.2727H201.101V23.8636H202.339V28.6989C202.328 30.3466 203.521 31.1534 205.067 31.1023C205.652 31.0909 206.055 30.9773 206.277 30.8977L205.93 29.2955C205.817 29.3182 205.584 29.375 205.328 29.375C204.811 29.375 204.391 29.1875 204.396 28.3636V23.8636H206.118V22.2727ZM210.412 31.1761C211.781 31.1761 212.599 30.5341 212.974 29.8011H213.043V31H215.02V25.1591C215.02 22.8523 213.128 22.1591 211.503 22.1591C209.628 22.1591 208.23 22.9773 207.776 24.5682L209.696 24.8409C209.901 24.2443 210.48 23.733 211.486 23.733C212.452 23.733 212.957 24.2273 212.963 25.0909C212.969 25.6648 212.384 25.7273 210.957 25.8807C210.906 25.8864 210.855 25.892 210.804 25.8977C209.111 26.0795 207.491 26.5852 207.491 28.5511C207.491 30.267 208.747 31.1761 210.412 31.1761ZM210.946 29.6648C210.088 29.6648 209.474 29.2727 209.474 28.517C209.474 27.7273 210.162 27.3977 211.082 27.267C211.622 27.1932 212.702 27.0568 212.969 26.8409V27.8693C212.969 28.8409 212.185 29.6648 210.946 29.6648ZM219.145 25.8864C219.145 24.625 219.906 23.8977 220.991 23.8977C222.054 23.8977 222.69 24.5966 222.69 25.7614V31H224.747V25.4432C224.753 23.3523 223.56 22.1591 221.759 22.1591C220.452 22.1591 219.554 22.7841 219.156 23.7557H219.054V22.2727H217.088V31H219.145V25.8864ZM234.719 31V19.3636H232.662V23.7159H232.577C232.264 23.0852 231.622 22.1591 230.082 22.1591C228.065 22.1591 226.48 23.7386 226.48 26.6477C226.48 29.5227 228.02 31.1534 230.077 31.1534C231.577 31.1534 232.253 30.2614 232.577 29.625H232.696V31H234.719ZM232.702 26.6364C232.702 28.3295 231.963 29.4659 230.651 29.4659C229.293 29.4659 228.577 28.2727 228.577 26.6364C228.577 25.0114 229.281 23.8466 230.651 23.8466C231.974 23.8466 232.702 24.9432 232.702 26.6364ZM236.838 31H238.895V22.2727H236.838V31ZM237.872 21.1023C238.509 21.1023 239.06 20.6136 239.06 19.9886C239.06 19.358 238.509 18.8693 237.872 18.8693C237.23 18.8693 236.679 19.358 236.679 19.9886C236.679 20.6136 237.23 21.1023 237.872 21.1023ZM243.067 25.8864C243.067 24.625 243.828 23.8977 244.913 23.8977C245.976 23.8977 246.612 24.5966 246.612 25.7614V31H248.669V25.4432C248.675 23.3523 247.482 22.1591 245.68 22.1591C244.374 22.1591 243.476 22.7841 243.078 23.7557H242.976V22.2727H241.01V31H243.067V25.8864ZM254.334 34.3523C256.896 34.3523 258.646 33.0625 258.646 30.8125V22.2727H256.624V23.7159H256.51C256.197 23.0852 255.544 22.1591 254.004 22.1591C251.987 22.1591 250.402 23.7386 250.402 26.608C250.402 29.4545 251.987 30.875 253.999 30.875C255.493 30.875 256.192 30.0739 256.51 29.4318H256.629V30.7386C256.646 31.9886 255.612 32.7045 254.345 32.7045C253.107 32.7045 252.459 32.0341 252.124 31.625L250.703 32.6932C251.294 33.5909 252.396 34.3523 254.334 34.3523ZM254.572 29.2614C253.214 29.2614 252.499 28.2045 252.499 26.5966C252.499 25.0114 253.203 23.8466 254.572 23.8466C255.896 23.8466 256.624 24.9432 256.624 26.5966C256.624 28.2614 255.885 29.2614 254.572 29.2614Z" fill="#636363"/>
<path d="M180.447 108H187.109V106.454H182.291V103.675H186.726V102.129H182.291V99.3643H187.069V97.8182H180.447V108ZM195.692 100.364H193.778L192.018 106.036H191.938L190.184 100.364H188.264L190.984 108H192.973L195.692 100.364ZM200.078 108.149C201.853 108.149 203.081 107.279 203.399 105.952L201.714 105.763C201.47 106.409 200.879 106.747 200.098 106.747C198.935 106.747 198.164 105.982 198.149 104.674H203.469V104.122C203.469 101.442 201.858 100.264 199.979 100.264C197.791 100.264 196.364 101.87 196.364 104.227C196.364 106.623 197.771 108.149 200.078 108.149ZM198.154 103.461C198.214 102.487 198.93 101.666 200.004 101.666C201.043 101.666 201.739 102.422 201.744 103.461H198.154ZM206.804 103.526C206.804 102.422 207.47 101.786 208.419 101.786C209.349 101.786 209.906 102.397 209.906 103.416V108H211.706V103.138C211.71 101.308 210.666 100.264 209.09 100.264C207.947 100.264 207.161 100.811 206.813 101.661H206.724V100.364H205.004V108H206.804V103.526ZM217.348 100.364H215.842V98.5341H214.042V100.364H212.958V101.756H214.042V105.987C214.032 107.428 215.076 108.134 216.429 108.089C216.941 108.08 217.294 107.98 217.487 107.911L217.184 106.509C217.085 106.528 216.881 106.578 216.657 106.578C216.205 106.578 215.837 106.414 215.842 105.693V101.756H217.348V100.364ZM224.834 102.382C224.586 101.089 223.552 100.264 221.762 100.264C219.922 100.264 218.669 101.169 218.674 102.581C218.669 103.695 219.356 104.43 220.822 104.734L222.125 105.007C222.826 105.161 223.154 105.445 223.154 105.877C223.154 106.399 222.587 106.792 221.732 106.792C220.907 106.792 220.37 106.434 220.216 105.748L218.461 105.917C218.684 107.319 219.863 108.149 221.737 108.149C223.646 108.149 224.993 107.16 224.998 105.713C224.993 104.624 224.292 103.958 222.851 103.645L221.548 103.366C220.772 103.192 220.464 102.924 220.469 102.482C220.464 101.964 221.036 101.607 221.787 101.607C222.617 101.607 223.054 102.059 223.194 102.561L224.834 102.382Z" fill="#636363"/>
<path d="M174.547 163H176.392V159.56H178.341C180.692 159.56 181.96 158.143 181.955 156.189C181.96 154.24 180.707 152.818 178.365 152.818H174.547V163ZM176.392 158.043V154.359H178.082C179.464 154.359 180.081 155.115 180.076 156.189C180.081 157.283 179.464 158.043 178.092 158.043H176.392ZM185.538 163.154C186.736 163.154 187.452 162.592 187.78 161.951H187.84V163H189.57V157.889C189.57 155.871 187.915 155.264 186.493 155.264C184.852 155.264 183.629 155.98 183.231 157.372L184.912 157.611C185.091 157.089 185.598 156.641 186.478 156.641C187.323 156.641 187.765 157.074 187.77 157.83C187.775 158.332 187.263 158.386 186.015 158.521C185.971 158.526 185.926 158.531 185.881 158.536C184.4 158.695 182.983 159.137 182.983 160.857C182.983 162.359 184.081 163.154 185.538 163.154ZM186.006 161.832C185.255 161.832 184.718 161.489 184.718 160.827C184.718 160.136 185.319 159.848 186.125 159.734C186.597 159.669 187.542 159.55 187.775 159.361V160.261C187.775 161.111 187.089 161.832 186.006 161.832ZM195.193 155.364H193.687V153.534H191.887V155.364H190.803V156.756H191.887V160.987C191.877 162.428 192.921 163.134 194.273 163.089C194.785 163.08 195.138 162.98 195.332 162.911L195.029 161.509C194.93 161.528 194.726 161.578 194.502 161.578C194.05 161.578 193.682 161.414 193.687 160.693V156.756H195.193V155.364ZM200.566 155.364H199.06V153.534H197.26V155.364H196.176V156.756H197.26V160.987C197.25 162.428 198.294 163.134 199.646 163.089C200.158 163.08 200.511 162.98 200.705 162.911L200.402 161.509C200.303 161.528 200.099 161.578 199.875 161.578C199.423 161.578 199.055 161.414 199.06 160.693V156.756H200.566V155.364ZM205.444 163.149C207.219 163.149 208.447 162.279 208.765 160.952L207.08 160.763C206.836 161.409 206.245 161.747 205.464 161.747C204.301 161.747 203.53 160.982 203.515 159.674H208.835V159.122C208.835 156.442 207.224 155.264 205.345 155.264C203.157 155.264 201.731 156.87 201.731 159.227C201.731 161.623 203.138 163.149 205.444 163.149ZM203.52 158.461C203.58 157.487 204.296 156.666 205.37 156.666C206.409 156.666 207.105 157.422 207.11 158.461H203.52ZM210.37 163H212.17V158.511C212.17 157.546 212.896 156.865 213.835 156.865C214.129 156.865 214.352 156.935 214.546 157.024L215.103 155.533C214.835 155.364 214.491 155.254 214.079 155.254C213.199 155.254 212.473 155.751 212.195 156.636H212.115V155.364H210.37V163ZM217.967 158.526C217.967 157.422 218.633 156.786 219.582 156.786C220.512 156.786 221.069 157.397 221.069 158.416V163H222.869V158.138C222.874 156.308 221.83 155.264 220.254 155.264C219.11 155.264 218.325 155.811 217.977 156.661H217.887V155.364H216.167V163H217.967V158.526ZM230.734 157.382C230.485 156.089 229.451 155.264 227.661 155.264C225.822 155.264 224.569 156.169 224.574 157.581C224.569 158.695 225.255 159.43 226.722 159.734L228.024 160.007C228.725 160.161 229.053 160.445 229.053 160.877C229.053 161.399 228.487 161.792 227.631 161.792C226.806 161.792 226.269 161.434 226.115 160.748L224.36 160.917C224.584 162.319 225.762 163.149 227.636 163.149C229.545 163.149 230.893 162.16 230.898 160.713C230.893 159.624 230.192 158.958 228.75 158.645L227.447 158.366C226.672 158.192 226.364 157.924 226.369 157.482C226.364 156.964 226.935 156.607 227.686 156.607C228.516 156.607 228.954 157.059 229.093 157.561L230.734 157.382Z" fill="#636363"/>
<path d="M143.118 210.617H144.893C144.858 208.897 143.391 207.679 141.224 207.679C139.086 207.679 137.48 208.882 137.485 210.682C137.485 212.143 138.524 212.984 140.199 213.416L141.358 213.714C142.456 213.993 143.182 214.336 143.187 215.126C143.182 215.996 142.357 216.578 141.154 216.578C140.001 216.578 139.106 216.061 139.031 214.992H137.216C137.291 217.016 138.797 218.154 141.169 218.154C143.61 218.154 145.027 216.936 145.032 215.141C145.027 213.376 143.57 212.571 142.039 212.208L141.084 211.969C140.249 211.771 139.344 211.418 139.354 210.567C139.359 209.802 140.045 209.24 141.199 209.24C142.297 209.24 143.023 209.752 143.118 210.617ZM147.651 220.973C149.043 220.973 149.908 220.197 150.335 218.994L153.418 210.364H151.504L149.739 216.131H149.659L147.899 210.364H145.99L148.769 218.169L148.58 218.646C148.227 219.482 147.72 219.556 146.935 219.327L146.517 220.769C146.721 220.854 147.124 220.973 147.651 220.973ZM160.699 212.382C160.45 211.089 159.416 210.264 157.626 210.264C155.787 210.264 154.534 211.169 154.539 212.581C154.534 213.695 155.22 214.43 156.686 214.734L157.989 215.007C158.69 215.161 159.018 215.445 159.018 215.877C159.018 216.399 158.451 216.792 157.596 216.792C156.771 216.792 156.234 216.434 156.08 215.748L154.325 215.917C154.549 217.319 155.727 218.149 157.601 218.149C159.51 218.149 160.858 217.16 160.863 215.713C160.858 214.624 160.157 213.958 158.715 213.645L157.412 213.366C156.637 213.192 156.328 212.924 156.333 212.482C156.328 211.964 156.9 211.607 157.651 211.607C158.481 211.607 158.919 212.059 159.058 212.561L160.699 212.382ZM166.16 210.364H164.653V208.534H162.854V210.364H161.77V211.756H162.854V215.987C162.844 217.428 163.888 218.134 165.24 218.089C165.752 218.08 166.105 217.98 166.299 217.911L165.996 216.509C165.896 216.528 165.692 216.578 165.469 216.578C165.016 216.578 164.648 216.414 164.653 215.693V211.756H166.16V210.364ZM171.038 218.149C172.813 218.149 174.041 217.279 174.359 215.952L172.674 215.763C172.43 216.409 171.839 216.747 171.058 216.747C169.895 216.747 169.124 215.982 169.109 214.674H174.429V214.122C174.429 211.442 172.818 210.264 170.939 210.264C168.751 210.264 167.324 211.87 167.324 214.227C167.324 216.623 168.731 218.149 171.038 218.149ZM169.114 213.461C169.174 212.487 169.89 211.666 170.964 211.666C172.003 211.666 172.699 212.422 172.704 213.461H169.114ZM175.964 218H177.763V213.357C177.763 212.417 178.39 211.781 179.165 211.781C179.926 211.781 180.448 212.293 180.448 213.078V218H182.213V213.237C182.213 212.377 182.725 211.781 183.595 211.781C184.321 211.781 184.898 212.208 184.898 213.153V218H186.702V212.874C186.702 211.169 185.718 210.264 184.316 210.264C183.207 210.264 182.362 210.811 182.024 211.661H181.945C181.651 210.796 180.911 210.264 179.881 210.264C178.857 210.264 178.092 210.791 177.773 211.661H177.684V210.364H175.964V218ZM188.528 218H190.328V210.364H188.528V218ZM189.433 209.339C189.99 209.339 190.472 208.912 190.472 208.365C190.472 207.813 189.99 207.386 189.433 207.386C188.871 207.386 188.389 207.813 188.389 208.365C188.389 208.912 188.871 209.339 189.433 209.339ZM195.525 218.149C197.444 218.149 198.667 217.011 198.801 215.39H197.076C196.922 216.21 196.33 216.683 195.539 216.683C194.416 216.683 193.69 215.743 193.69 214.182C193.69 212.641 194.431 211.716 195.539 211.716C196.404 211.716 196.941 212.273 197.076 213.009H198.801C198.672 211.353 197.379 210.264 195.515 210.264C193.277 210.264 191.865 211.88 191.865 214.212C191.865 216.523 193.243 218.149 195.525 218.149ZM209.372 210.617H211.146C211.112 208.897 209.645 207.679 207.477 207.679C205.34 207.679 203.734 208.882 203.739 210.682C203.739 212.143 204.778 212.984 206.453 213.416L207.612 213.714C208.71 213.993 209.436 214.336 209.441 215.126C209.436 215.996 208.611 216.578 207.408 216.578C206.254 216.578 205.36 216.061 205.285 214.992H203.47C203.545 217.016 205.051 218.154 207.423 218.154C209.864 218.154 211.281 216.936 211.286 215.141C211.281 213.376 209.824 212.571 208.293 212.208L207.338 211.969C206.503 211.771 205.598 211.418 205.608 210.567C205.613 209.802 206.299 209.24 207.453 209.24C208.551 209.24 209.277 209.752 209.372 210.617ZM216.664 210.364H215.157V208.534H213.358V210.364H212.274V211.756H213.358V215.987C213.348 217.428 214.392 218.134 215.744 218.089C216.256 218.08 216.609 217.98 216.803 217.911L216.5 216.509C216.4 216.528 216.196 216.578 215.973 216.578C215.52 216.578 215.152 216.414 215.157 215.693V211.756H216.664V210.364ZM218.224 218H220.023V213.511C220.023 212.546 220.749 211.865 221.689 211.865C221.982 211.865 222.206 211.935 222.4 212.024L222.956 210.533C222.688 210.364 222.345 210.254 221.932 210.254C221.052 210.254 220.327 210.751 220.048 211.636H219.969V210.364H218.224V218ZM228.888 214.788C228.888 215.952 228.057 216.528 227.262 216.528C226.397 216.528 225.82 215.917 225.82 214.947V210.364H224.02V215.226C224.02 217.06 225.064 218.099 226.566 218.099C227.709 218.099 228.515 217.498 228.863 216.643H228.942V218H230.687V210.364H228.888V214.788ZM235.884 218.149C237.803 218.149 239.026 217.011 239.16 215.39H237.435C237.281 216.21 236.689 216.683 235.899 216.683C234.775 216.683 234.049 215.743 234.049 214.182C234.049 212.641 234.79 211.716 235.899 211.716C236.764 211.716 237.301 212.273 237.435 213.009H239.16C239.031 211.353 237.738 210.264 235.874 210.264C233.637 210.264 232.225 211.88 232.225 214.212C232.225 216.523 233.602 218.149 235.884 218.149ZM244.459 210.364H242.952V208.534H241.153V210.364H240.069V211.756H241.153V215.987C241.143 217.428 242.187 218.134 243.539 218.089C244.051 218.08 244.404 217.98 244.598 217.911L244.295 216.509C244.195 216.528 243.991 216.578 243.768 216.578C243.315 216.578 242.947 216.414 242.952 215.693V211.756H244.459V210.364ZM250.886 214.788C250.886 215.952 250.055 216.528 249.26 216.528C248.395 216.528 247.818 215.917 247.818 214.947V210.364H246.018V215.226C246.018 217.06 247.062 218.099 248.564 218.099C249.707 218.099 250.513 217.498 250.861 216.643H250.94V218H252.685V210.364H250.886V214.788ZM254.536 218H256.336V213.511C256.336 212.546 257.062 211.865 258.001 211.865C258.295 211.865 258.518 211.935 258.712 212.024L259.269 210.533C259.001 210.364 258.657 210.254 258.245 210.254C257.365 210.254 256.639 210.751 256.361 211.636H256.281V210.364H254.536V218ZM263.419 218.149C265.194 218.149 266.422 217.279 266.74 215.952L265.055 215.763C264.811 216.409 264.219 216.747 263.439 216.747C262.276 216.747 261.505 215.982 261.49 214.674H266.81V214.122C266.81 211.442 265.199 210.264 263.32 210.264C261.132 210.264 259.705 211.87 259.705 214.227C259.705 216.623 261.112 218.149 263.419 218.149ZM261.495 213.461C261.555 212.487 262.271 211.666 263.344 211.666C264.384 211.666 265.08 212.422 265.085 213.461H261.495Z" fill="#636363"/>
<path d="M161.568 265.617H163.343C163.308 263.897 161.841 262.679 159.674 262.679C157.536 262.679 155.93 263.882 155.935 265.682C155.935 267.143 156.974 267.984 158.65 268.416L159.808 268.714C160.907 268.993 161.633 269.336 161.638 270.126C161.633 270.996 160.807 271.578 159.604 271.578C158.451 271.578 157.556 271.061 157.481 269.992H155.667C155.741 272.016 157.248 273.154 159.619 273.154C162.06 273.154 163.477 271.936 163.482 270.141C163.477 268.376 162.02 267.571 160.489 267.208L159.535 266.969C158.699 266.771 157.794 266.418 157.804 265.567C157.809 264.802 158.495 264.24 159.649 264.24C160.748 264.24 161.473 264.752 161.568 265.617ZM166.847 268.526C166.847 267.422 167.533 266.786 168.497 266.786C169.442 266.786 169.998 267.387 169.998 268.416V273H171.798V268.138C171.798 266.293 170.754 265.264 169.168 265.264C167.995 265.264 167.249 265.796 166.896 266.661H166.807V262.818H165.047V273H166.847V268.526ZM175.83 273.154C177.028 273.154 177.744 272.592 178.072 271.951H178.132V273H179.862V267.889C179.862 265.871 178.207 265.264 176.785 265.264C175.144 265.264 173.921 265.98 173.523 267.372L175.204 267.611C175.383 267.089 175.89 266.641 176.77 266.641C177.615 266.641 178.057 267.074 178.062 267.83C178.067 268.332 177.555 268.386 176.307 268.521C176.263 268.526 176.218 268.531 176.173 268.536C174.692 268.695 173.275 269.137 173.275 270.857C173.275 272.359 174.373 273.154 175.83 273.154ZM176.297 271.832C175.547 271.832 175.01 271.489 175.01 270.827C175.01 270.136 175.611 269.848 176.417 269.734C176.889 269.669 177.834 269.55 178.067 269.361V270.261C178.067 271.111 177.381 271.832 176.297 271.832ZM181.672 273H183.472V268.511C183.472 267.546 184.197 266.865 185.137 266.865C185.43 266.865 185.654 266.935 185.848 267.024L186.405 265.533C186.136 265.364 185.793 265.254 185.381 265.254C184.501 265.254 183.775 265.751 183.496 266.636H183.417V265.364H181.672V273ZM190.555 273.149C192.33 273.149 193.558 272.279 193.876 270.952L192.19 270.763C191.947 271.409 191.355 271.747 190.575 271.747C189.411 271.747 188.641 270.982 188.626 269.674H193.945V269.122C193.945 266.442 192.335 265.264 190.455 265.264C188.268 265.264 186.841 266.87 186.841 269.227C186.841 271.623 188.248 273.149 190.555 273.149ZM188.631 268.461C188.69 267.487 189.406 266.666 190.48 266.666C191.519 266.666 192.215 267.422 192.22 268.461H188.631ZM202.376 273V262.818H200.576V266.626H200.502C200.228 266.075 199.666 265.264 198.319 265.264C196.554 265.264 195.167 266.646 195.167 269.192C195.167 271.707 196.514 273.134 198.314 273.134C199.627 273.134 200.218 272.354 200.502 271.797H200.606V273H202.376ZM200.611 269.182C200.611 270.663 199.965 271.658 198.816 271.658C197.628 271.658 197.002 270.614 197.002 269.182C197.002 267.76 197.618 266.741 198.816 266.741C199.975 266.741 200.611 267.7 200.611 269.182ZM209.145 262.818H207.121L210.706 273H212.983L216.572 262.818H214.544L211.899 270.832H211.795L209.145 262.818ZM217.834 273H219.634V265.364H217.834V273ZM218.739 264.339C219.296 264.339 219.778 263.912 219.778 263.365C219.778 262.813 219.296 262.386 218.739 262.386C218.177 262.386 217.695 262.813 217.695 263.365C217.695 263.912 218.177 264.339 218.739 264.339ZM227.52 267.382C227.271 266.089 226.237 265.264 224.447 265.264C222.608 265.264 221.355 266.169 221.36 267.581C221.355 268.695 222.041 269.43 223.508 269.734L224.81 270.007C225.511 270.161 225.839 270.445 225.839 270.877C225.839 271.399 225.273 271.792 224.418 271.792C223.592 271.792 223.055 271.434 222.901 270.748L221.146 270.917C221.37 272.319 222.548 273.149 224.422 273.149C226.332 273.149 227.679 272.16 227.684 270.713C227.679 269.624 226.978 268.958 225.536 268.645L224.234 268.366C223.458 268.192 223.15 267.924 223.155 267.482C223.15 266.964 223.722 266.607 224.472 266.607C225.302 266.607 225.74 267.059 225.879 267.561L227.52 267.382ZM229.168 273H230.968V265.364H229.168V273ZM230.073 264.339C230.63 264.339 231.112 263.912 231.112 263.365C231.112 262.813 230.63 262.386 230.073 262.386C229.511 262.386 229.029 262.813 229.029 263.365C229.029 263.912 229.511 264.339 230.073 264.339ZM236.164 273.149C238.401 273.149 239.823 271.573 239.823 269.212C239.823 266.845 238.401 265.264 236.164 265.264C233.932 265.264 232.505 266.845 232.505 269.212C232.505 271.573 233.932 273.149 236.164 273.149ZM236.174 271.707C234.936 271.707 234.33 270.604 234.33 269.207C234.33 267.81 234.936 266.691 236.174 266.691C237.392 266.691 237.999 267.81 237.999 269.207C237.999 270.604 237.392 271.707 236.174 271.707ZM243.163 268.526C243.163 267.422 243.829 266.786 244.779 266.786C245.708 266.786 246.265 267.397 246.265 268.416V273H248.065V268.138C248.07 266.308 247.026 265.264 245.45 265.264C244.306 265.264 243.521 265.811 243.173 266.661H243.083V265.364H241.363V273H243.163V268.526Z" fill="#636363"/>
<rect x="144" y="125" width="115" height="2" fill="#636363"/>
<rect x="105" y="183" width="192" height="2" fill="#636363"/>
<rect x="67" y="241" width="269" height="2" fill="#636363"/>
<path d="M204.821 46.7414L365.616 286.271C367.4 288.928 365.496 292.5 362.295 292.5H40.7046C37.504 292.5 35.5997 288.928 37.3835 286.271L198.179 46.7414C199.764 44.3807 203.236 44.3807 204.821 46.7414Z" stroke="#636363" stroke-width="2"/>
</g>
<defs>
<clipPath id="clip0">
<rect width="631" height="313" fill="white"/>
</clipPath>
</defs>
</svg>
