<svg width="1500" height="1500" viewBox="0 0 1500 1500" fill="none" xmlns="http://www.w3.org/2000/svg">
  <style>
     path {
      fill: black;
    }
    @media (prefers-color-scheme: dark) {
      path {
        fill: white;
      }
    }
  </style>
<path d="M584.7 562.6C578.1 555.267 564.167 545.733 542.9 534C521.634 521.533 495.967 510.533 465.9 501C436.567 490.733 406.134 485.6 374.6 485.6C291.734 485.6 250.3 514.933 250.3 573.6C250.3 594.867 256.9 611.733 270.1 624.2C283.3 636.667 303.1 647.3 329.5 656.1C355.9 664.9 388.9 674.433 428.5 684.7C479.834 697.9 524.2 713.3 561.6 730.9C599.734 748.5 628.7 771.967 648.5 801.3C669.034 829.9 679.3 868.033 679.3 915.7C679.3 971.433 665.733 1016.53 638.6 1051C612.2 1084.73 577 1109.3 533 1124.7C489 1140.1 441.334 1147.8 390 1147.8C331.334 1147.8 273.034 1139 215.1 1121.4C157.9 1103.07 106.934 1078.13 62.2002 1046.6L129.3 915.7C135.9 922.3 147.634 931.1 164.5 942.1C181.367 952.367 201.9 963 226.1 974C250.3 984.267 276.7 993.067 305.3 1000.4C333.9 1007.73 362.867 1011.4 392.2 1011.4C475.8 1011.4 517.6 984.633 517.6 931.1C517.6 908.367 509.167 890.033 492.3 876.1C475.434 862.167 451.6 850.433 420.8 840.9C390.734 831.367 355.534 820.733 315.2 809C265.334 795.067 223.9 779.667 190.9 762.8C158.634 745.2 134.434 723.567 118.3 697.9C102.167 671.5 94.1002 638.133 94.1002 597.8C94.1002 544.267 106.567 499.533 131.5 463.6C157.167 426.933 191.634 399.433 234.9 381.1C278.167 362.033 326.2 352.5 379 352.5C433.267 352.5 483.867 361.3 530.8 378.9C577.734 396.5 618.067 416.667 651.8 439.4L584.7 562.6Z" />
<path d="M1423.21 937.7C1423.21 981.7 1411.84 1018.73 1389.11 1048.8C1366.38 1078.13 1335.58 1100.5 1296.71 1115.9C1258.58 1131.3 1216.78 1139 1171.31 1139H794.01V358H1212.01C1248.68 358 1280.21 367.9 1306.61 387.7C1333.01 406.767 1353.54 431.7 1368.21 462.5C1382.88 493.3 1390.21 524.833 1390.21 557.1C1390.21 595.233 1380.68 631.167 1361.61 664.9C1342.54 697.9 1314.68 722.467 1278.01 738.6C1322.74 751.8 1357.94 775.633 1383.61 810.1C1410.01 844.567 1423.21 887.1 1423.21 937.7ZM945.81 487.8V684.7H1148.21C1173.14 684.7 1194.78 675.9 1213.11 658.3C1231.44 640.7 1240.61 616.5 1240.61 585.7C1240.61 556.367 1232.18 532.9 1215.31 515.3C1199.18 496.967 1179.01 487.8 1154.81 487.8H945.81ZM1270.31 909.1C1270.31 880.5 1261.51 855.933 1243.91 835.4C1226.31 814.867 1204.68 804.6 1179.01 804.6H945.81V1010.3H1171.31C1199.18 1010.3 1222.64 1000.4 1241.71 980.6C1260.78 960.8 1270.31 936.967 1270.31 909.1Z" />
</svg>
