<svg width="772" height="492" viewBox="0 0 772 492" fill="none" xmlns="http://www.w3.org/2000/svg">
<g clip-path="url(#clip0)">
<rect width="772" height="492" fill="white"/>
<circle cx="391" cy="272" r="18" stroke="#636363" stroke-width="2"/>
<rect x="380.444" y="269.889" width="21.1111" height="2.11111" rx="1.05556" fill="#636363"/>
<rect x="384.667" y="274.111" width="12.6667" height="2.11111" rx="1.05555" fill="#636363"/>
<circle cx="461" cy="249" r="18" stroke="#636363" stroke-width="2"/>
<rect x="450.444" y="246.889" width="21.1111" height="2.11111" rx="1.05556" fill="#636363"/>
<rect x="454.667" y="251.111" width="12.6667" height="2.11111" rx="1.05555" fill="#636363"/>
<circle cx="496" cy="209" r="18" stroke="#636363" stroke-width="2"/>
<rect x="485.444" y="206.889" width="21.1111" height="2.11111" rx="1.05556" fill="#636363"/>
<rect x="489.667" y="211.111" width="12.6667" height="2.11111" rx="1.05555" fill="#636363"/>
<circle cx="465" cy="152" r="18" stroke="#636363" stroke-width="2"/>
<rect x="454.444" y="149.889" width="21.1111" height="2.11111" rx="1.05556" fill="#636363"/>
<rect x="458.667" y="154.111" width="12.6667" height="2.11111" rx="1.05555" fill="#636363"/>
<circle cx="408" cy="123" r="18" stroke="#636363" stroke-width="2"/>
<rect x="397.444" y="120.889" width="21.1111" height="2.11111" rx="1.05556" fill="#636363"/>
<rect x="401.667" y="125.111" width="12.6667" height="2.11111" rx="1.05555" fill="#636363"/>
<circle cx="454" cy="66" r="18" stroke="#636363" stroke-width="2"/>
<rect x="443.444" y="63.8889" width="21.1111" height="2.11111" rx="1.05556" fill="#636363"/>
<rect x="447.667" y="68.1111" width="12.6667" height="2.11111" rx="1.05555" fill="#636363"/>
<path d="M413 45C413 54.9664 405.14 63 395.5 63C385.86 63 378 54.9664 378 45C378 35.0336 385.86 27 395.5 27C405.14 27 413 35.0336 413 45Z" stroke="#636363" stroke-width="2"/>
<rect x="385.222" y="42.8889" width="20.5556" height="2.11111" rx="1.05556" fill="#636363"/>
<rect x="389.333" y="47.1111" width="12.3333" height="2.11111" rx="1.05555" fill="#636363"/>
<circle cx="345" cy="62" r="18" stroke="#636363" stroke-width="2"/>
<rect x="334.444" y="59.8889" width="21.1111" height="2.11111" rx="1.05556" fill="#636363"/>
<rect x="338.667" y="64.1111" width="12.6667" height="2.11111" rx="1.05555" fill="#636363"/>
<circle cx="303" cy="135" r="18" stroke="#636363" stroke-width="2"/>
<rect x="292.444" y="132.889" width="21.1111" height="2.11111" rx="1.05556" fill="#636363"/>
<rect x="296.667" y="137.111" width="12.6667" height="2.11111" rx="1.05555" fill="#636363"/>
<path d="M342 202.5C342 212.14 333.966 220 324 220C314.034 220 306 212.14 306 202.5C306 192.86 314.034 185 324 185C333.966 185 342 192.86 342 202.5Z" stroke="#636363" stroke-width="2"/>
<rect x="313.444" y="200.444" width="21.1111" height="2.05556" rx="1.02778" fill="#636363"/>
<rect x="317.667" y="204.556" width="12.6667" height="2.05555" rx="1.02778" fill="#636363"/>
<circle cx="250.5" cy="179.5" r="17.5" stroke="#636363" stroke-width="2"/>
<rect x="240.222" y="177.444" width="20.5556" height="2.05556" rx="1.02778" fill="#636363"/>
<rect x="244.333" y="181.556" width="12.3333" height="2.05555" rx="1.02778" fill="#636363"/>
<circle cx="215" cy="125" r="18" stroke="#636363" stroke-width="2"/>
<rect x="204.444" y="122.889" width="21.1111" height="2.11111" rx="1.05556" fill="#636363"/>
<rect x="208.667" y="127.111" width="12.6667" height="2.11111" rx="1.05555" fill="#636363"/>
<circle cx="219" cy="236" r="18" stroke="#636363" stroke-width="2"/>
<rect x="208.444" y="233.889" width="21.1111" height="2.11111" rx="1.05556" fill="#636363"/>
<rect x="212.667" y="238.111" width="12.6667" height="2.11111" rx="1.05555" fill="#636363"/>
<circle cx="208" cy="335" r="18" stroke="#636363" stroke-width="2"/>
<rect x="197.444" y="332.889" width="21.1111" height="2.11111" rx="1.05556" fill="#636363"/>
<rect x="201.667" y="337.111" width="12.6667" height="2.11111" rx="1.05555" fill="#636363"/>
<circle cx="242" cy="381" r="18" stroke="#636363" stroke-width="2"/>
<rect x="231.444" y="378.889" width="21.1111" height="2.11111" rx="1.05556" fill="#636363"/>
<rect x="235.667" y="383.111" width="12.6667" height="2.11111" rx="1.05555" fill="#636363"/>
<path d="M312 295C312 304.966 304.14 313 294.5 313C284.86 313 277 304.966 277 295C277 285.034 284.86 277 294.5 277C304.14 277 312 285.034 312 295Z" stroke="#636363" stroke-width="2"/>
<rect x="284.222" y="292.889" width="20.5556" height="2.11111" rx="1.05556" fill="#636363"/>
<rect x="288.333" y="297.111" width="12.3333" height="2.11111" rx="1.05555" fill="#636363"/>
<circle cx="160" cy="280" r="18" stroke="#636363" stroke-width="2"/>
<rect x="149.444" y="277.889" width="21.1111" height="2.11111" rx="1.05556" fill="#636363"/>
<rect x="153.667" y="282.111" width="12.6667" height="2.11111" rx="1.05555" fill="#636363"/>
<circle cx="95" cy="310" r="18" stroke="#636363" stroke-width="2"/>
<rect x="84.4443" y="307.889" width="21.1111" height="2.11111" rx="1.05556" fill="#636363"/>
<rect x="88.6665" y="312.111" width="12.6667" height="2.11111" rx="1.05555" fill="#636363"/>
<circle cx="95" cy="390" r="18" stroke="#636363" stroke-width="2"/>
<rect x="84.4443" y="387.889" width="21.1111" height="2.11111" rx="1.05556" fill="#636363"/>
<rect x="88.6665" y="392.111" width="12.6667" height="2.11111" rx="1.05555" fill="#636363"/>
<circle cx="162" cy="375" r="18" stroke="#636363" stroke-width="2"/>
<rect x="151.444" y="372.889" width="21.1111" height="2.11111" rx="1.05556" fill="#636363"/>
<rect x="155.667" y="377.111" width="12.6667" height="2.11111" rx="1.05555" fill="#636363"/>
<circle cx="349" cy="331" r="18" stroke="#636363" stroke-width="2"/>
<rect x="338.444" y="328.889" width="21.1111" height="2.11111" rx="1.05556" fill="#636363"/>
<rect x="342.667" y="333.111" width="12.6667" height="2.11111" rx="1.05555" fill="#636363"/>
<circle cx="530" cy="297" r="18" stroke="#636363" stroke-width="2"/>
<rect x="519.444" y="294.889" width="21.1111" height="2.11111" rx="1.05556" fill="#636363"/>
<rect x="523.667" y="299.111" width="12.6667" height="2.11111" rx="1.05555" fill="#636363"/>
<circle cx="677" cy="278" r="18" stroke="#636363" stroke-width="2"/>
<rect x="666.444" y="275.889" width="21.1111" height="2.11111" rx="1.05556" fill="#636363"/>
<rect x="670.667" y="280.111" width="12.6667" height="2.11111" rx="1.05555" fill="#636363"/>
<path d="M661 213C661 222.966 653.14 231 643.5 231C633.86 231 626 222.966 626 213C626 203.034 633.86 195 643.5 195C653.14 195 661 203.034 661 213Z" stroke="#636363" stroke-width="2"/>
<rect x="633.222" y="210.889" width="20.5556" height="2.11111" rx="1.05556" fill="#636363"/>
<rect x="637.333" y="215.111" width="12.3333" height="2.11111" rx="1.05555" fill="#636363"/>
<path d="M556 139.5C556 149.14 547.966 157 538 157C528.034 157 520 149.14 520 139.5C520 129.86 528.034 122 538 122C547.966 122 556 129.86 556 139.5Z" stroke="#636363" stroke-width="2"/>
<rect x="527.444" y="137.444" width="21.1111" height="2.05556" rx="1.02778" fill="#636363"/>
<rect x="531.667" y="141.556" width="12.6667" height="2.05555" rx="1.02778" fill="#636363"/>
<path d="M600 177C600 186.966 592.14 195 582.5 195C572.86 195 565 186.966 565 177C565 167.034 572.86 159 582.5 159C592.14 159 600 167.034 600 177Z" stroke="#636363" stroke-width="2"/>
<rect x="572.222" y="174.889" width="20.5556" height="2.11111" rx="1.05556" fill="#636363"/>
<rect x="576.333" y="179.111" width="12.3333" height="2.11111" rx="1.05555" fill="#636363"/>
<circle cx="400" cy="364" r="18" stroke="#636363" stroke-width="2"/>
<rect x="389.444" y="361.889" width="21.1111" height="2.11111" rx="1.05556" fill="#636363"/>
<rect x="393.667" y="366.111" width="12.6667" height="2.11111" rx="1.05555" fill="#636363"/>
<path d="M367 427.5C367 437.14 358.966 445 349 445C339.034 445 331 437.14 331 427.5C331 417.86 339.034 410 349 410C358.966 410 367 417.86 367 427.5Z" stroke="#636363" stroke-width="2"/>
<rect x="338.444" y="425.444" width="21.1111" height="2.05556" rx="1.02778" fill="#636363"/>
<rect x="342.667" y="429.556" width="12.6667" height="2.05555" rx="1.02778" fill="#636363"/>
<circle cx="400" cy="446" r="18" stroke="#636363" stroke-width="2"/>
<rect x="389.444" y="443.889" width="21.1111" height="2.11111" rx="1.05556" fill="#636363"/>
<rect x="393.667" y="448.111" width="12.6667" height="2.11111" rx="1.05555" fill="#636363"/>
<circle cx="446" cy="425" r="18" stroke="#636363" stroke-width="2"/>
<rect x="435.444" y="422.889" width="21.1111" height="2.11111" rx="1.05556" fill="#636363"/>
<rect x="439.667" y="427.111" width="12.6667" height="2.11111" rx="1.05555" fill="#636363"/>
<circle cx="530" cy="432" r="18" stroke="#636363" stroke-width="2"/>
<rect x="519.444" y="429.889" width="21.1111" height="2.11111" rx="1.05556" fill="#636363"/>
<rect x="523.667" y="434.111" width="12.6667" height="2.11111" rx="1.05555" fill="#636363"/>
<path d="M642 402C642 411.966 634.14 420 624.5 420C614.86 420 607 411.966 607 402C607 392.034 614.86 384 624.5 384C634.14 384 642 392.034 642 402Z" stroke="#636363" stroke-width="2"/>
<rect x="614.222" y="399.889" width="20.5556" height="2.11111" rx="1.05556" fill="#636363"/>
<rect x="618.333" y="404.111" width="12.3333" height="2.11111" rx="1.05555" fill="#636363"/>
<path d="M689.012 297L684.113 307.456L695.618 306.471L689.012 297ZM648 391L659.511 390.084L652.962 380.574L648 391ZM688.782 306.027C690.502 336.639 682.322 364.417 654.81 385.098L656.012 386.697C684.194 365.513 692.525 337.005 690.779 305.914L688.782 306.027Z" fill="#636363"/>
<path d="M506 294.765L498.988 285.592L494.549 296.251L506 294.765ZM441.967 242.388L432.935 235.193L431.22 246.612L441.967 242.388ZM419.923 242.388L420.185 243.353L420.185 243.353L419.923 242.388ZM414.674 282.195L423.675 289.428L425.438 278.016L414.674 282.195ZM316 295.813L327.053 299.153L324.419 287.911L316 295.813ZM380.033 293.718L371.76 301.773L382.872 304.91L380.033 293.718ZM474.655 269.006C477.317 274.613 485.021 285.607 497.217 292.186L498.167 290.426C486.427 284.093 478.985 273.464 476.461 268.148L474.655 269.006ZM433.112 240.052C429.124 239.868 424.391 240.136 419.66 241.423L420.185 243.353C424.667 242.133 429.183 241.873 433.02 242.05L433.112 240.052ZM419.66 241.423C410.046 244.04 405.415 251.239 404.278 254.642L406.175 255.276C407.138 252.393 411.324 245.765 420.185 243.353L419.66 241.423ZM423.567 284.569C431.902 284.592 442.824 281.521 451.169 270.218L449.56 269.03C441.663 279.726 431.399 282.591 423.573 282.569L423.567 284.569ZM325.083 294.707C332.379 292.229 339.482 288.143 346.575 284.546C353.72 280.921 360.912 277.756 368.596 276.904L368.376 274.916C360.311 275.81 352.846 279.122 345.67 282.762C338.441 286.429 331.557 290.396 324.439 292.814L325.083 294.707ZM389.194 343.353C384.906 338.296 381.918 331.085 380.17 323.583C378.424 316.09 377.94 308.41 378.582 302.486L376.594 302.27C375.924 308.448 376.432 316.356 378.222 324.037C380.01 331.71 383.099 339.258 387.668 344.647L389.194 343.353Z" fill="#636363"/>
<path d="M409.882 144L405.649 154.743L417.069 153.038L409.882 144ZM431.059 217.365L431.519 218.253L431.059 217.365ZM466 174.394L458.162 182.873L469.424 185.422L466 174.394ZM410.216 152.992C411.879 171.347 409.985 206.935 393.065 251.598L394.935 252.306C411.958 207.374 413.899 171.482 412.208 152.812L410.216 152.992ZM398.077 253.435C401.909 245.504 413.996 227.339 431.519 218.253L430.599 216.478C412.546 225.838 400.209 244.425 396.276 252.565L398.077 253.435ZM431.519 218.253C450.399 208.464 460.372 198.568 464.97 183.466L463.056 182.883C458.674 197.277 449.217 206.824 430.599 216.478L431.519 218.253Z" fill="#636363"/>
<path d="M475 74L479.211 84.7518L486.417 75.7291L475 74ZM481.312 80.3106C486.132 85.2865 490.364 92.5301 490.935 101.745C491.505 110.952 488.429 122.262 478.385 135.392L479.974 136.608C490.239 123.187 493.537 111.414 492.931 101.622C492.325 91.8375 487.828 84.1639 482.749 78.9192L481.312 80.3106Z" fill="#636363"/>
<path d="M415.208 37.74L426.102 41.569L423.971 30.2203L415.208 37.74ZM433.092 71.3185L421.566 72.0137L427.931 81.6479L433.092 71.3185ZM517.252 133.229L506.414 129.245L508.383 140.623L517.252 133.229ZM582.476 157.363L578.979 146.358L571.197 154.889L582.476 157.363ZM632.972 194.09L628.2 183.575L621.48 192.965L632.972 194.09ZM674 256L678.72 245.462L667.234 246.643L674 256ZM424.12 37.0769C431.82 36.5734 440.942 38.3901 445.911 46.6501L447.625 45.6192C442.085 36.409 431.991 34.5579 423.989 35.0812L424.12 37.0769ZM424.974 75.4865C417.016 81.593 412.53 88.6018 410.026 99.4249L411.974 99.8757C414.381 89.4735 418.626 82.8785 426.191 77.0731L424.974 75.4865ZM486.085 142.543C493.545 139.354 501.996 137.12 508.59 135.742L508.18 133.785C501.519 135.177 492.927 137.443 485.299 140.704L486.085 142.543ZM556.941 140.483C559.644 141.291 562.788 142.98 565.992 145.094C569.183 147.2 572.381 149.692 575.181 152.061L576.473 150.534C573.633 148.131 570.371 145.587 567.093 143.424C563.828 141.27 560.493 139.458 557.515 138.567L556.941 140.483ZM605.305 179.299C611.798 181.458 619.296 185.825 625.099 189.684L626.206 188.019C620.363 184.133 612.687 179.646 605.936 177.401L605.305 179.299ZM661.756 227.36C664.65 229.984 669.984 237.089 672.1 247.25L674.058 246.843C671.852 236.25 666.294 228.774 663.1 225.878L661.756 227.36Z" fill="#636363"/>
<path d="M344.706 82L338.308 91.6127L349.832 92.3468L344.706 82ZM382 251L383.711 239.58L372.966 243.809L382 251ZM343.134 90.9421C342.056 119.012 346.931 163.525 377.773 242.989L379.637 242.265C348.86 162.968 344.068 118.734 345.133 91.0189L343.134 90.9421Z" fill="#636363"/>
<path d="M342.767 214L348.849 223.816L354.309 213.641L342.767 214ZM331 223.4L331.404 234.94L341.196 228.82L331 223.4ZM350.115 219.068C357.816 224.577 368.234 235.681 376.073 255.108L377.927 254.359C369.957 234.605 359.309 223.187 351.278 217.442L350.115 219.068ZM371.843 260.019C365.764 258.832 350.7 251.266 336.598 230.471L334.942 231.593C349.252 252.695 364.725 260.667 371.46 261.981L371.843 260.019Z" fill="#636363"/>
<path d="M311.585 184.641L308.538 173.503L300.416 181.711L311.585 184.641ZM264.462 199.397L264.886 210.936L274.668 204.799L264.462 199.397ZM326.245 135.103L330.328 145.904L337.641 136.968L326.245 135.103ZM232 108.754L243.538 108.298L237.374 98.5335L232 108.754ZM305.785 177.509C298.745 172.249 287.524 167.824 273.594 172.091L274.18 174.003C287.362 169.965 297.932 174.138 304.589 179.111L305.785 177.509ZM268.571 207.759C274.171 212.875 284.629 216.868 302.316 214.087L302.005 212.111C284.724 214.829 274.943 210.871 269.92 206.283L268.571 207.759ZM332.48 141.486C336.484 145.761 340.179 151.819 341.493 159.486C342.805 167.142 341.757 176.477 336.159 187.345L337.937 188.261C343.711 177.051 344.857 167.277 343.464 159.148C342.073 151.03 338.162 144.627 333.939 140.119L332.48 141.486ZM240.061 104.842C246.536 101.56 254.805 99.1751 263.252 100.269C271.656 101.358 280.35 105.903 287.721 116.696L289.373 115.568C281.703 104.338 272.518 99.4525 263.509 98.2857C254.542 97.1243 245.863 99.6594 239.157 103.058L240.061 104.842Z" fill="#636363"/>
<path d="M369 269L359.957 261.819L358.26 273.241L369 269ZM219.658 202.741L218.796 203.248L218.802 203.258L219.658 202.741ZM210.193 147L201.687 154.809L212.703 158.271L210.193 147ZM360.264 266.691C339.165 263.249 309.803 256.424 282.9 245.783C255.946 235.121 231.684 220.713 220.514 202.224L218.802 203.258C230.334 222.346 255.146 236.955 282.165 247.643C309.235 258.351 338.744 265.206 359.942 268.665L360.264 266.691ZM220.52 202.234C208.451 181.716 206.982 165.512 208.484 155.738L206.507 155.434C204.926 165.725 206.527 182.39 218.796 203.248L220.52 202.234Z" fill="#636363"/>
<path d="M95 287L103.354 279.029L92.2737 275.779L95 287ZM199 224.404L191.434 215.681L187.663 226.595L199 224.404ZM98.4801 278.683C103.61 263.583 113.349 245.567 128.396 233.313C143.393 221.099 163.708 214.563 190.204 222.421L190.772 220.504C163.61 212.448 142.615 219.153 127.133 231.762C111.7 244.331 101.79 262.721 96.5864 278.04L98.4801 278.683Z" fill="#636363"/>
<path d="M165.2 300.984L165.885 312.511L175.525 306.154L165.2 300.984ZM329 324.078L321.033 315.719L317.778 326.798L329 324.078ZM261.8 368.167L273.103 365.808L265.409 357.198L261.8 368.167ZM233.45 336.675L244.996 336.786L239.32 326.731L233.45 336.675ZM282.8 275.79L285.073 264.469L274.132 268.161L282.8 275.79ZM195.65 241.149L184.44 238.38L187.647 249.473L195.65 241.149ZM145.25 296.785L133.705 296.547L139.272 306.664L145.25 296.785ZM180.95 387.062L188.421 395.866L192.31 384.994L180.95 387.062ZM98 329.327L97.7259 340.87L107.86 335.336L98 329.327ZM169.365 309.111C173.332 314.236 177.917 318.702 181.501 321.88C183.295 323.471 184.842 324.744 185.943 325.62C186.494 326.058 186.933 326.398 187.235 326.628C187.387 326.743 187.504 326.832 187.584 326.891C187.624 326.921 187.654 326.944 187.675 326.959C187.686 326.967 187.694 326.973 187.699 326.977C187.702 326.979 187.704 326.981 187.706 326.982C187.707 326.982 187.707 326.983 187.708 326.983C187.708 326.983 187.708 326.984 187.708 326.984C187.709 326.984 187.709 326.984 188.3 326.177C188.891 325.371 188.891 325.371 188.891 325.371C188.891 325.371 188.891 325.371 188.891 325.371C188.891 325.371 188.891 325.371 188.89 325.37C188.889 325.369 188.888 325.368 188.886 325.367C188.881 325.363 188.874 325.358 188.865 325.352C188.846 325.338 188.818 325.317 188.781 325.289C188.706 325.233 188.594 325.149 188.448 325.037C188.155 324.815 187.728 324.484 187.189 324.055C186.111 323.198 184.591 321.948 182.828 320.384C179.297 317.252 174.81 312.879 170.947 307.887L169.365 309.111ZM307.257 313.2C311.302 317.693 315.909 320.624 319.953 322.452L320.777 320.629C316.939 318.894 312.572 316.115 308.743 311.862L307.257 313.2ZM269.283 362.804C274.974 355.855 281.214 344.67 286.008 335.286C288.411 330.582 290.462 326.308 291.912 323.211C292.637 321.662 293.212 320.406 293.606 319.538C293.803 319.103 293.955 318.765 294.058 318.536C294.109 318.421 294.148 318.333 294.174 318.274C294.188 318.245 294.198 318.222 294.204 318.207C294.208 318.2 294.21 318.194 294.212 318.19C294.213 318.188 294.213 318.186 294.214 318.185C294.214 318.185 294.214 318.185 294.214 318.184C294.215 318.184 294.215 318.184 293.3 317.78C292.385 317.375 292.385 317.375 292.385 317.376C292.385 317.376 292.385 317.376 292.385 317.376C292.384 317.377 292.384 317.379 292.383 317.38C292.382 317.384 292.379 317.389 292.376 317.397C292.37 317.411 292.36 317.433 292.347 317.462C292.321 317.519 292.283 317.606 292.232 317.719C292.131 317.945 291.98 318.28 291.785 318.711C291.394 319.574 290.822 320.822 290.1 322.363C288.657 325.445 286.617 329.698 284.227 334.377C279.433 343.759 273.277 354.77 267.736 361.537L269.283 362.804ZM241.782 333.119C247.193 330.026 254.583 325.727 261.206 321.617C264.517 319.562 267.644 317.55 270.239 315.756C272.817 313.974 274.924 312.371 276.157 311.139L274.743 309.724C273.65 310.817 271.675 312.332 269.101 314.111C266.544 315.878 263.448 317.871 260.152 319.917C253.559 324.009 246.193 328.294 240.789 331.383L241.782 333.119ZM241.666 238.983C251.329 240.794 270.591 248.995 279.011 267.675L280.834 266.853C272.045 247.354 252.055 238.896 242.034 237.017L241.666 238.983ZM172.394 259.442C176.131 251.972 182.157 247.157 187.446 244.546L186.56 242.753C180.963 245.517 174.574 250.612 170.606 258.547L172.394 259.442ZM114.8 309.382C115.105 310.334 115.105 310.334 115.105 310.334C115.105 310.334 115.105 310.334 115.105 310.334C115.106 310.334 115.107 310.334 115.107 310.333C115.109 310.333 115.112 310.332 115.115 310.331C115.122 310.329 115.131 310.326 115.144 310.321C115.17 310.313 115.209 310.301 115.259 310.284C115.36 310.252 115.509 310.204 115.702 310.141C116.088 310.016 116.648 309.832 117.349 309.6C118.751 309.135 120.716 308.474 122.969 307.688C127.469 306.118 133.138 304.044 137.763 302.041L136.969 300.205C132.411 302.179 126.797 304.234 122.31 305.8C120.069 306.581 118.114 307.239 116.72 307.701C116.023 307.933 115.466 308.115 115.084 308.239C114.893 308.301 114.745 308.349 114.646 308.381C114.596 308.397 114.558 308.409 114.533 308.417C114.52 308.421 114.511 308.424 114.504 308.426C114.501 308.427 114.499 308.428 114.497 308.429C114.497 308.429 114.496 308.429 114.496 308.429C114.496 308.429 114.495 308.429 114.495 308.429C114.495 308.429 114.495 308.429 114.8 309.382ZM189.111 391.043C197.604 393.836 206.45 395.428 220.029 392.234L219.571 390.287C206.419 393.381 197.952 391.845 189.736 389.143L189.111 391.043ZM101.527 337.842C106.746 344.456 115.7 353.029 123.306 359.916C127.117 363.367 130.605 366.408 133.139 368.587C134.407 369.676 135.436 370.55 136.149 371.152C136.506 371.453 136.783 371.685 136.972 371.843C137.066 371.922 137.138 371.982 137.186 372.023C137.211 372.043 137.229 372.059 137.242 372.069C137.248 372.074 137.252 372.078 137.256 372.081C137.257 372.082 137.258 372.083 137.259 372.084C137.26 372.084 137.26 372.084 137.26 372.084C137.26 372.085 137.261 372.085 137.9 371.316C138.539 370.547 138.539 370.547 138.539 370.547C138.539 370.547 138.539 370.546 138.538 370.546C138.538 370.546 138.537 370.545 138.535 370.543C138.532 370.541 138.528 370.537 138.522 370.532C138.51 370.522 138.492 370.507 138.468 370.487C138.42 370.448 138.349 370.388 138.256 370.31C138.069 370.154 137.794 369.922 137.439 369.623C136.73 369.025 135.705 368.155 134.443 367.07C131.918 364.9 128.444 361.87 124.648 358.433C117.04 351.544 108.201 343.071 103.097 336.603L101.527 337.842Z" fill="#636363"/>
<path d="M91 330L83.3151 338.618L94.6213 340.964L91 330ZM88.525 369.864C87.2198 360.35 88.5688 348.053 90.1568 338.983L88.1867 338.638C86.5903 347.757 85.1948 360.304 86.5436 370.136L88.525 369.864Z" fill="#636363"/>
<path d="M391 383L380.292 387.321L389.388 394.434L391 383ZM384.675 389.465C378.899 396.708 371.509 405.557 367.337 409.251L368.663 410.749C372.991 406.917 380.491 397.919 386.239 390.712L384.675 389.465Z" fill="#636363"/>
<path d="M399.605 386L394.216 396.212L405.755 395.773L399.605 386ZM398.948 395.014C399.095 402.666 398.974 412.858 398.006 421.893L399.994 422.107C400.975 412.953 401.096 402.667 400.947 394.975L398.948 395.014Z" fill="#636363"/>
<path d="M434 402L432.412 390.563L423.301 397.657L434 402ZM411.444 381.831C415.17 384.321 422.231 389.686 427.739 395.58L429.201 394.215C423.557 388.175 416.365 382.714 412.556 380.169L411.444 381.831Z" fill="#636363"/>
<path d="M338 351L327.959 356.703L337.918 362.547L338 351ZM335.617 408.481C330.614 400.232 324.282 379.926 334.343 359.201L332.544 358.327C322.108 379.824 328.656 400.86 333.907 409.519L335.617 408.481Z" fill="#636363"/>
<path d="M516 415L508.243 406.446L504.714 417.441L516 415ZM402 292L397.952 302.814L409.342 300.913L402 292ZM507.764 411.307C473.589 399.04 417.307 364.27 404.463 300.681L402.502 301.077C415.55 365.671 472.633 400.822 507.089 413.189L507.764 411.307Z" fill="#636363"/>
<path d="M551 435.665L560.778 441.807L561.208 430.268L551 435.665ZM613.508 423.13C596.837 432.558 574.485 434.972 559.991 435L559.995 437C574.606 436.972 597.373 434.553 614.492 424.87L613.508 423.13Z" fill="#636363"/>
<path d="M558.076 177L547.353 172.717L549.006 184.145L558.076 177ZM510.694 283.411L508.045 272.172L499.636 280.085L510.694 283.411ZM524.382 274.982L520.942 263.96L513.116 272.45L524.382 274.982ZM542.282 413L550.891 405.304L539.922 401.697L542.282 413ZM612.829 382.446L615.504 371.213L604.439 374.514L612.829 382.446ZM550.706 287.625L562.242 288.116L556.899 277.879L550.706 287.625ZM561.235 302.375L569.939 309.963L572.159 298.632L561.235 302.375ZM514.39 193.647C527.355 185.392 540.393 181.161 549.374 179.267L548.961 177.31C539.794 179.243 526.522 183.551 513.316 191.96L514.39 193.647ZM476.684 263.288C483.14 265.441 495.55 270.751 503.889 277.627L505.161 276.084C496.55 268.983 483.876 263.578 477.316 261.391L476.684 263.288ZM518.515 268.222C511.886 260.688 504.036 247.379 502.213 228.529L500.222 228.721C502.091 248.04 510.142 261.734 517.014 269.543L518.515 268.222ZM546.059 404.713C555.104 371.498 545.489 332.987 538.999 316.754L537.142 317.496C543.556 333.54 553.011 371.57 544.129 404.187L546.059 404.713ZM611.194 373.472C605.338 357.808 593.497 342.352 581.72 330.233C575.824 324.166 569.925 318.917 564.765 314.876C559.626 310.851 555.162 307.978 552.144 306.72L551.374 308.566C554.136 309.717 558.428 312.452 563.532 316.45C568.617 320.433 574.449 325.622 580.286 331.627C591.974 343.654 603.602 358.877 609.321 374.173L611.194 373.472ZM583.468 199.488C587.203 209.075 590.182 224.337 587.563 239.963C584.951 255.551 576.772 271.498 558.172 282.602L559.197 284.319C578.373 272.872 586.841 256.374 589.536 240.294C592.225 224.251 589.173 208.622 585.332 198.762L583.468 199.488ZM655.628 290.911C639.651 297.306 602.074 307.771 570.215 303.117L569.926 305.095C602.289 309.824 640.252 299.219 656.372 292.768L655.628 290.911Z" fill="#636363"/>
</g>
<defs>
<clipPath id="clip0">
<rect width="772" height="492" fill="white"/>
</clipPath>
</defs>
</svg>
