<svg width="386" height="313" viewBox="0 0 386 313" fill="none" xmlns="http://www.w3.org/2000/svg">
<rect width="386" height="313" fill="white"/>
<path d="M76.4141 115.42H78.1072C78.0561 113.557 76.4084 112.205 74.0447 112.205C71.7095 112.205 69.9197 113.54 69.9197 115.545C69.9197 117.165 71.0788 118.114 72.9482 118.619L74.3232 118.994C75.5675 119.324 76.5277 119.733 76.5277 120.767C76.5277 121.903 75.4425 122.653 73.9482 122.653C72.5959 122.653 71.4709 122.051 71.3686 120.784H69.6072C69.7209 122.892 71.3516 124.193 73.9595 124.193C76.6925 124.193 78.2663 122.756 78.2663 120.784C78.2663 118.688 76.397 117.875 74.9197 117.511L73.7834 117.216C72.8743 116.983 71.6641 116.557 71.6697 115.443C71.6697 114.455 72.5732 113.722 74.005 113.722C75.3402 113.722 76.2891 114.347 76.4141 115.42ZM81.2393 127.392C82.6484 127.392 83.5632 126.631 84.0575 125.273L87.6939 115.273H85.87L83.6598 122.045H83.5689L81.3587 115.273H79.5405L82.7564 124.131L82.4837 124.801C82.0348 125.926 81.4496 126.034 80.5121 125.784L80.103 127.193C80.2848 127.278 80.7109 127.392 81.2393 127.392ZM95.8303 117.403C95.478 116.045 94.4155 115.159 92.5291 115.159C90.5575 115.159 89.1598 116.199 89.1598 117.744C89.1598 118.983 89.9098 119.807 91.5462 120.17L93.0234 120.494C93.8643 120.682 94.2564 121.057 94.2564 121.602C94.2564 122.278 93.5348 122.807 92.4212 122.807C91.4041 122.807 90.7507 122.369 90.5462 121.511L88.9041 121.761C89.1882 123.307 90.4723 124.176 92.4325 124.176C94.5405 124.176 96.0007 123.057 96.0007 121.477C96.0007 120.244 95.2166 119.483 93.6143 119.114L92.228 118.795C91.2678 118.568 90.853 118.244 90.8587 117.653C90.853 116.983 91.5803 116.506 92.5462 116.506C93.603 116.506 94.0916 117.091 94.2905 117.676L95.8303 117.403ZM101.942 115.273H100.153V113.182H98.4538V115.273H97.1754V116.636H98.4538V121.784C98.4482 123.364 99.6584 124.131 100.999 124.108C101.539 124.102 101.903 124 102.102 123.926L101.795 122.523C101.681 122.545 101.471 122.597 101.198 122.597C100.647 122.597 100.147 122.415 100.153 121.432V116.636H101.942V115.273ZM107.563 124.176C109.467 124.176 110.813 123.239 111.2 121.818L109.592 121.528C109.279 122.352 108.546 122.773 107.575 122.773C106.126 122.773 105.143 121.83 105.097 120.148H111.308V119.545C111.308 116.392 109.421 115.159 107.438 115.159C105.006 115.159 103.41 117.011 103.41 119.693C103.41 122.403 104.984 124.176 107.563 124.176ZM105.103 118.875C105.177 117.636 106.069 116.562 107.455 116.562C108.773 116.562 109.637 117.54 109.637 118.875H105.103ZM113.212 124H114.911V118.619C114.911 117.443 115.735 116.625 116.701 116.625C117.644 116.625 118.298 117.25 118.298 118.199V124H119.991V118.438C119.991 117.386 120.633 116.625 121.741 116.625C122.638 116.625 123.377 117.125 123.377 118.307V124H125.076V118.148C125.076 116.153 123.962 115.159 122.383 115.159C121.127 115.159 120.184 115.761 119.763 116.693H119.673C119.292 115.739 118.491 115.159 117.326 115.159C116.173 115.159 115.315 115.733 114.951 116.693H114.843V115.273H113.212V124ZM80.331 132.364H78.5753V144H80.331V132.364ZM89.2912 137.403C88.9389 136.045 87.8764 135.159 85.9901 135.159C84.0185 135.159 82.6207 136.199 82.6207 137.744C82.6207 138.983 83.3707 139.807 85.0071 140.17L86.4844 140.494C87.3253 140.682 87.7173 141.057 87.7173 141.602C87.7173 142.278 86.9957 142.807 85.8821 142.807C84.8651 142.807 84.2116 142.369 84.0071 141.511L82.3651 141.761C82.6491 143.307 83.9332 144.176 85.8935 144.176C88.0014 144.176 89.4616 143.057 89.4616 141.477C89.4616 140.244 88.6776 139.483 87.0753 139.114L85.6889 138.795C84.7287 138.568 84.3139 138.244 84.3196 137.653C84.3139 136.983 85.0412 136.506 86.0071 136.506C87.0639 136.506 87.5526 137.091 87.7514 137.676L89.2912 137.403ZM97.8693 137.403C97.517 136.045 96.4545 135.159 94.5682 135.159C92.5966 135.159 91.1989 136.199 91.1989 137.744C91.1989 138.983 91.9489 139.807 93.5852 140.17L95.0625 140.494C95.9034 140.682 96.2955 141.057 96.2955 141.602C96.2955 142.278 95.5739 142.807 94.4602 142.807C93.4432 142.807 92.7898 142.369 92.5852 141.511L90.9432 141.761C91.2273 143.307 92.5114 144.176 94.4716 144.176C96.5795 144.176 98.0398 143.057 98.0398 141.477C98.0398 140.244 97.2557 139.483 95.6534 139.114L94.267 138.795C93.3068 138.568 92.892 138.244 92.8977 137.653C92.892 136.983 93.6193 136.506 94.5852 136.506C95.642 136.506 96.1307 137.091 96.3295 137.676L97.8693 137.403ZM105.436 140.381C105.442 141.864 104.339 142.568 103.385 142.568C102.334 142.568 101.607 141.807 101.607 140.619V135.273H99.9077V140.824C99.9077 142.989 101.095 144.114 102.771 144.114C104.084 144.114 104.976 143.42 105.379 142.489H105.47V144H107.141V135.273H105.436V140.381ZM113.196 144.176C115.099 144.176 116.446 143.239 116.832 141.818L115.224 141.528C114.912 142.352 114.179 142.773 113.207 142.773C111.759 142.773 110.776 141.83 110.73 140.148H116.94V139.545C116.94 136.392 115.054 135.159 113.071 135.159C110.639 135.159 109.043 137.011 109.043 139.693C109.043 142.403 110.616 144.176 113.196 144.176ZM110.736 138.875C110.81 137.636 111.702 136.562 113.088 136.562C114.406 136.562 115.27 137.54 115.27 138.875H110.736Z" fill="#636363"/>
<path d="M252.32 130.42H254.013C253.962 128.557 252.315 127.205 249.951 127.205C247.616 127.205 245.826 128.54 245.826 130.545C245.826 132.165 246.985 133.114 248.854 133.619L250.229 133.994C251.474 134.324 252.434 134.733 252.434 135.767C252.434 136.903 251.349 137.653 249.854 137.653C248.502 137.653 247.377 137.051 247.275 135.784H245.513C245.627 137.892 247.258 139.193 249.866 139.193C252.599 139.193 254.173 137.756 254.173 135.784C254.173 133.688 252.303 132.875 250.826 132.511L249.69 132.216C248.781 131.983 247.57 131.557 247.576 130.443C247.576 129.455 248.479 128.722 249.911 128.722C251.246 128.722 252.195 129.347 252.32 130.42ZM260.208 130.273H258.418V128.182H256.719V130.273H255.441V131.636H256.719V136.784C256.714 138.364 257.924 139.131 259.265 139.108C259.805 139.102 260.168 139 260.367 138.926L260.06 137.523C259.947 137.545 259.737 137.597 259.464 137.597C258.913 137.597 258.413 137.415 258.418 136.432V131.636H260.208V130.273ZM265.744 139.176C268.198 139.176 269.812 137.375 269.812 134.676C269.812 131.96 268.198 130.159 265.744 130.159C263.283 130.159 261.675 131.96 261.675 134.676C261.675 137.375 263.283 139.176 265.744 139.176ZM265.744 137.75C264.141 137.75 263.386 136.347 263.386 134.67C263.386 133 264.141 131.58 265.744 131.58C267.34 131.58 268.096 133 268.096 134.67C268.096 136.347 267.34 137.75 265.744 137.75ZM276.036 139.17C278.156 139.17 279.684 137.477 279.684 134.653C279.684 131.824 278.133 130.159 276.019 130.159C274.4 130.159 273.815 131.148 273.513 131.688H273.371V130.273H271.712V142.273H273.411V137.642H273.513C273.82 138.199 274.44 139.17 276.036 139.17ZM275.656 137.722C274.195 137.722 273.383 136.477 273.377 134.636C273.383 132.818 274.173 131.602 275.656 131.602C277.195 131.602 277.968 132.903 277.968 134.636C277.968 136.386 277.173 137.722 275.656 137.722ZM285.116 142.312C287.406 142.312 289.178 141.193 289.178 138.943V130.273H287.519V131.688H287.394C287.093 131.148 286.491 130.159 284.866 130.159C282.758 130.159 281.207 131.824 281.207 134.602C281.207 137.386 282.792 138.869 284.854 138.869C286.457 138.869 287.076 137.966 287.383 137.409H287.502V138.835C287.519 140.188 286.423 140.886 285.116 140.886C283.752 140.886 283.116 140.119 282.781 139.699L281.536 140.608C282.104 141.523 283.212 142.312 285.116 142.312ZM285.229 137.46C283.712 137.46 282.923 136.295 282.923 134.58C282.923 132.903 283.695 131.602 285.229 131.602C286.712 131.602 287.508 132.812 287.508 134.58C287.508 136.381 286.695 137.46 285.229 137.46ZM294.002 139.193C295.445 139.193 296.258 138.46 296.582 137.807H296.65V139H298.309V133.205C298.309 130.665 296.303 130.159 294.934 130.159C293.337 130.159 291.888 130.795 291.32 132.386L292.917 132.75C293.167 132.131 293.803 131.534 294.945 131.534C296.053 131.534 296.604 132.114 296.604 133.114C296.61 133.682 296.087 133.739 294.826 133.881C294.69 133.892 294.548 133.909 294.4 133.926C292.746 134.119 291.053 134.551 291.053 136.534C291.053 138.25 292.343 139.193 294.002 139.193ZM294.371 137.83C293.411 137.83 292.718 137.398 292.718 136.557C292.718 135.648 293.525 135.324 294.508 135.193C295.059 135.119 296.366 134.972 296.61 134.727V135.852C296.61 136.886 295.786 137.83 294.371 137.83ZM304.896 139.17C307.015 139.17 308.543 137.477 308.543 134.653C308.543 131.824 306.992 130.159 304.879 130.159C303.259 130.159 302.674 131.148 302.373 131.688H302.231V130.273H300.572V142.273H302.271V137.642H302.373C302.68 138.199 303.299 139.17 304.896 139.17ZM304.515 137.722C303.055 137.722 302.242 136.477 302.237 134.636C302.242 132.818 303.032 131.602 304.515 131.602C306.055 131.602 306.827 132.903 306.827 134.636C306.827 136.386 306.032 137.722 304.515 137.722Z" fill="#636363"/>
<path d="M148.275 239.364V247.034C148.275 248.665 146.974 249.58 145.406 249.58C143.849 249.58 142.542 248.665 142.542 247.034V239.364H140.786V247.062C140.786 249.688 142.832 251.193 145.406 251.193C147.979 251.193 150.031 249.688 150.031 247.062V239.364H148.275ZM154.146 245.818C154.146 244.426 154.998 243.631 156.18 243.631C157.333 243.631 158.032 244.386 158.032 245.653V251H159.731V245.449C159.731 243.29 158.543 242.159 156.759 242.159C155.447 242.159 154.589 242.767 154.185 243.693H154.077V242.273H152.447V251H154.146V245.818ZM162.009 251H163.708V242.273H162.009V251ZM162.867 240.972C163.447 240.972 163.941 240.523 163.941 239.96C163.941 239.398 163.447 238.943 162.867 238.943C162.282 238.943 161.793 239.398 161.793 239.96C161.793 240.523 162.282 240.972 162.867 240.972ZM167.692 245.818C167.692 244.426 168.545 243.631 169.727 243.631C170.88 243.631 171.579 244.386 171.579 245.653V251H173.278V245.449C173.278 243.29 172.09 242.159 170.306 242.159C168.994 242.159 168.136 242.767 167.732 243.693H167.624V242.273H165.994V251H167.692V245.818ZM179.63 242.273H177.84V240.182H176.141V242.273H174.863V243.636H176.141V248.784C176.136 250.364 177.346 251.131 178.687 251.108C179.227 251.102 179.59 251 179.789 250.926L179.482 249.523C179.369 249.545 179.158 249.597 178.886 249.597C178.335 249.597 177.835 249.415 177.84 248.432V243.636H179.63V242.273ZM185.251 251.176C187.154 251.176 188.501 250.239 188.887 248.818L187.279 248.528C186.967 249.352 186.234 249.773 185.262 249.773C183.813 249.773 182.83 248.83 182.785 247.148H188.995V246.545C188.995 243.392 187.109 242.159 185.126 242.159C182.694 242.159 181.097 244.011 181.097 246.693C181.097 249.403 182.671 251.176 185.251 251.176ZM182.79 245.875C182.864 244.636 183.756 243.562 185.143 243.562C186.461 243.562 187.325 244.54 187.325 245.875H182.79ZM192.599 245.818C192.599 244.426 193.451 243.631 194.633 243.631C195.786 243.631 196.485 244.386 196.485 245.653V251H198.184V245.449C198.184 243.29 196.996 242.159 195.212 242.159C193.9 242.159 193.042 242.767 192.638 243.693H192.531V242.273H190.9V251H192.599V245.818ZM208.053 251V239.364H206.354V243.688H206.252C205.951 243.148 205.366 242.159 203.746 242.159C201.638 242.159 200.082 243.824 200.082 246.653C200.082 249.477 201.616 251.17 203.729 251.17C205.32 251.17 205.945 250.199 206.252 249.642H206.394V251H208.053ZM206.388 246.636C206.388 248.472 205.57 249.722 204.11 249.722C202.593 249.722 201.798 248.386 201.798 246.636C201.798 244.903 202.57 243.602 204.11 243.602C205.593 243.602 206.388 244.812 206.388 246.636ZM214.11 251.176C216.013 251.176 217.36 250.239 217.746 248.818L216.138 248.528C215.826 249.352 215.093 249.773 214.121 249.773C212.673 249.773 211.69 248.83 211.644 247.148H217.854V246.545C217.854 243.392 215.968 242.159 213.985 242.159C211.553 242.159 209.957 244.011 209.957 246.693C209.957 249.403 211.531 251.176 214.11 251.176ZM211.65 245.875C211.724 244.636 212.616 243.562 214.002 243.562C215.32 243.562 216.184 244.54 216.184 245.875H211.65ZM227.35 251V239.364H225.651V243.688H225.549C225.248 243.148 224.663 242.159 223.043 242.159C220.935 242.159 219.379 243.824 219.379 246.653C219.379 249.477 220.913 251.17 223.026 251.17C224.617 251.17 225.242 250.199 225.549 249.642H225.691V251H227.35ZM225.685 246.636C225.685 248.472 224.867 249.722 223.407 249.722C221.89 249.722 221.094 248.386 221.094 246.636C221.094 244.903 221.867 243.602 223.407 243.602C224.89 243.602 225.685 244.812 225.685 246.636ZM132.939 271.176C135.001 271.176 136.337 269.938 136.524 268.239H134.871C134.655 269.182 133.922 269.739 132.945 269.739C131.507 269.739 130.581 268.54 130.581 266.636C130.581 264.767 131.524 263.591 132.945 263.591C134.03 263.591 134.689 264.273 134.871 265.091H136.524C136.337 263.33 134.905 262.159 132.916 262.159C130.462 262.159 128.871 264.011 128.871 266.676C128.871 269.307 130.405 271.176 132.939 271.176ZM142.033 271.176C144.487 271.176 146.101 269.375 146.101 266.676C146.101 263.96 144.487 262.159 142.033 262.159C139.572 262.159 137.964 263.96 137.964 266.676C137.964 269.375 139.572 271.176 142.033 271.176ZM142.033 269.75C140.43 269.75 139.675 268.347 139.675 266.67C139.675 265 140.43 263.58 142.033 263.58C143.629 263.58 144.385 265 144.385 266.67C144.385 268.347 143.629 269.75 142.033 269.75ZM149.7 265.818C149.7 264.426 150.553 263.631 151.734 263.631C152.888 263.631 153.587 264.386 153.587 265.653V271H155.286V265.449C155.286 263.29 154.098 262.159 152.314 262.159C151.001 262.159 150.143 262.767 149.74 263.693H149.632V262.273H148.001V271H149.7V265.818ZM164.104 264.403C163.751 263.045 162.689 262.159 160.803 262.159C158.831 262.159 157.433 263.199 157.433 264.744C157.433 265.983 158.183 266.807 159.82 267.17L161.297 267.494C162.138 267.682 162.53 268.057 162.53 268.602C162.53 269.278 161.808 269.807 160.695 269.807C159.678 269.807 159.024 269.369 158.82 268.511L157.178 268.761C157.462 270.307 158.746 271.176 160.706 271.176C162.814 271.176 164.274 270.057 164.274 268.477C164.274 267.244 163.49 266.483 161.888 266.114L160.501 265.795C159.541 265.568 159.126 265.244 159.132 264.653C159.126 263.983 159.854 263.506 160.82 263.506C161.876 263.506 162.365 264.091 162.564 264.676L164.104 264.403ZM169.915 271.176C171.818 271.176 173.165 270.239 173.551 268.818L171.943 268.528C171.631 269.352 170.898 269.773 169.926 269.773C168.477 269.773 167.494 268.83 167.449 267.148H173.659V266.545C173.659 263.392 171.773 262.159 169.79 262.159C167.358 262.159 165.761 264.011 165.761 266.693C165.761 269.403 167.335 271.176 169.915 271.176ZM167.455 265.875C167.528 264.636 168.42 263.562 169.807 263.562C171.125 263.562 171.989 264.54 171.989 265.875H167.455ZM178.831 271.17C180.428 271.17 181.047 270.199 181.354 269.642H181.456V274.273H183.155V262.273H181.496V263.688H181.354C181.053 263.148 180.467 262.159 178.848 262.159C176.734 262.159 175.183 263.824 175.183 266.653C175.183 269.477 176.712 271.17 178.831 271.17ZM179.212 269.722C177.695 269.722 176.899 268.386 176.899 266.636C176.899 264.903 177.672 263.602 179.212 263.602C180.695 263.602 181.484 264.818 181.49 266.636C181.484 268.477 180.672 269.722 179.212 269.722ZM190.967 267.381C190.973 268.864 189.871 269.568 188.916 269.568C187.865 269.568 187.138 268.807 187.138 267.619V262.273H185.439V267.824C185.439 269.989 186.626 271.114 188.303 271.114C189.615 271.114 190.507 270.42 190.911 269.489H191.001V271H192.672V262.273H190.967V267.381ZM198.727 271.176C200.631 271.176 201.977 270.239 202.364 268.818L200.756 268.528C200.443 269.352 199.71 269.773 198.739 269.773C197.29 269.773 196.307 268.83 196.261 267.148H202.472V266.545C202.472 263.392 200.585 262.159 198.602 262.159C196.17 262.159 194.574 264.011 194.574 266.693C194.574 269.403 196.148 271.176 198.727 271.176ZM196.267 265.875C196.341 264.636 197.233 263.562 198.619 263.562C199.938 263.562 200.801 264.54 200.801 265.875H196.267ZM206.075 265.818C206.075 264.426 206.928 263.631 208.109 263.631C209.263 263.631 209.962 264.386 209.962 265.653V271H211.661V265.449C211.661 263.29 210.473 262.159 208.689 262.159C207.376 262.159 206.518 262.767 206.115 263.693H206.007V262.273H204.376V271H206.075V265.818ZM217.626 271.176C219.689 271.176 221.024 269.938 221.212 268.239H219.558C219.342 269.182 218.609 269.739 217.632 269.739C216.195 269.739 215.268 268.54 215.268 266.636C215.268 264.767 216.212 263.591 217.632 263.591C218.717 263.591 219.376 264.273 219.558 265.091H221.212C221.024 263.33 219.592 262.159 217.604 262.159C215.149 262.159 213.558 264.011 213.558 266.676C213.558 269.307 215.092 271.176 217.626 271.176ZM226.805 271.176C228.709 271.176 230.055 270.239 230.442 268.818L228.834 268.528C228.521 269.352 227.788 269.773 226.817 269.773C225.368 269.773 224.385 268.83 224.339 267.148H230.55V266.545C230.55 263.392 228.663 262.159 226.68 262.159C224.249 262.159 222.652 264.011 222.652 266.693C222.652 269.403 224.226 271.176 226.805 271.176ZM224.345 265.875C224.419 264.636 225.311 263.562 226.697 263.562C228.016 263.562 228.879 264.54 228.879 265.875H224.345ZM238.994 264.403C238.642 263.045 237.58 262.159 235.693 262.159C233.722 262.159 232.324 263.199 232.324 264.744C232.324 265.983 233.074 266.807 234.71 267.17L236.188 267.494C237.028 267.682 237.42 268.057 237.42 268.602C237.42 269.278 236.699 269.807 235.585 269.807C234.568 269.807 233.915 269.369 233.71 268.511L232.068 268.761C232.352 270.307 233.636 271.176 235.597 271.176C237.705 271.176 239.165 270.057 239.165 268.477C239.165 267.244 238.381 266.483 236.778 266.114L235.392 265.795C234.432 265.568 234.017 265.244 234.023 264.653C234.017 263.983 234.744 263.506 235.71 263.506C236.767 263.506 237.256 264.091 237.455 264.676L238.994 264.403Z" fill="#636363"/>
<path d="M250.476 85.527H245.712V80.8182H243.302V85.527H238.538V87.9276H243.302V92.6364H245.712V87.9276H250.476V85.527Z" fill="#636363"/>
<path d="M145.505 174H133.493V176.345H145.505V174Z" fill="#636363"/>
<path d="M112.945 96.0706C112.02 95.6769 111.588 94.6071 112 93.6903C119.012 78.0913 130.284 64.7717 144.536 55.274C159.294 45.4397 176.603 40.1316 194.337 40.0024C212.071 39.8732 229.456 44.9285 244.355 54.5467C258.744 63.8357 270.209 76.9897 277.447 92.4848C277.873 93.3955 277.456 94.4715 276.537 94.8786V94.8786C275.618 95.2857 274.545 94.8698 274.119 93.9594C267.168 79.1128 256.174 66.5091 242.381 57.6049C228.077 48.3713 211.388 43.5183 194.364 43.6423C177.339 43.7664 160.722 48.8621 146.555 58.3031C132.893 67.4073 122.083 80.1699 115.35 95.1162C114.937 96.0327 113.87 96.4643 112.945 96.0706V96.0706Z" fill="#636363"/>
<path d="M275.539 169.296C276.447 169.728 276.834 170.814 276.384 171.713C268.733 187.009 256.919 199.85 242.286 208.75C227.134 217.965 209.62 222.552 191.896 221.947C174.172 221.342 157.011 215.572 142.523 205.345C128.53 195.468 117.62 181.851 111.029 166.069C110.642 165.142 111.102 164.084 112.037 163.715V163.715C112.973 163.347 114.028 163.807 114.416 164.734C120.746 179.855 131.209 192.903 144.622 202.371C158.531 212.189 175.005 217.728 192.02 218.309C209.035 218.89 225.849 214.486 240.394 205.64C254.422 197.109 265.75 184.805 273.096 170.15C273.547 169.251 274.631 168.864 275.539 169.296V169.296Z" fill="#636363"/>
<path d="M291.886 169.131C292.855 169.275 293.524 170.177 293.366 171.143C290.818 186.75 285.331 201.737 277.19 215.306C269.049 228.876 258.409 240.772 245.838 250.366C245.06 250.96 243.949 250.794 243.366 250.007V250.007C242.783 249.22 242.949 248.111 243.727 247.517C255.924 238.2 266.249 226.653 274.15 213.482C282.051 200.312 287.38 185.768 289.859 170.621C290.017 169.655 290.918 168.987 291.886 169.131V169.131Z" fill="#636363"/>
<path d="M132.091 251.245C131.424 251.962 130.301 252.004 129.594 251.327C118.167 240.396 108.914 227.392 102.331 213.002C95.7474 198.613 91.9586 183.109 91.1596 167.316C91.1102 166.338 91.8758 165.516 92.8541 165.48V165.48C93.8325 165.445 94.6531 166.209 94.703 167.187C95.4847 182.515 99.165 197.561 105.554 211.528C111.944 225.494 120.922 238.117 132.008 248.731C132.716 249.408 132.757 250.528 132.091 251.245V251.245Z" fill="#636363"/>
<path d="M280.063 84.6674L277.264 94.7655C277.112 95.3131 276.535 95.6244 275.994 95.4505L265 91.9159" stroke="#636363" stroke-width="3" stroke-linecap="round"/>
<path d="M106.625 171.664L111.643 162.465C111.915 161.966 112.547 161.794 113.035 162.086L122.94 168.024" stroke="#636363" stroke-width="3" stroke-linecap="round"/>
<path d="M84.925 172.328L92.5955 165.189C93.0115 164.801 93.666 164.838 94.0359 165.27L101.553 174.036" stroke="#636363" stroke-width="3" stroke-linecap="round"/>
<path d="M253.813 252.018L243.441 250.527C242.878 250.446 242.496 249.913 242.6 249.355L244.707 238" stroke="#636363" stroke-width="3" stroke-linecap="round"/>
<rect x="270" y="202" width="21" height="3" rx="1.5" fill="#636363"/>
<rect x="268" y="208" width="21" height="3" rx="1.5" fill="#636363"/>
</svg>
