<svg width="386" height="220" viewBox="0 0 386 220" fill="none" xmlns="http://www.w3.org/2000/svg">
<rect width="386" height="220" fill="white"/>
<path d="M57.3331 33H59.0888V27.9261H64.8899V33H66.6513V21.3636H64.8899V26.4205H59.0888V21.3636H57.3331V33ZM72.8331 33.1761C74.7365 33.1761 76.0831 32.2386 76.4695 30.8182L74.8615 30.5284C74.5547 31.3523 73.8161 31.7727 72.8501 31.7727C71.3956 31.7727 70.4183 30.8295 70.3729 29.1477H76.5774V28.5455C76.5774 25.392 74.6911 24.1591 72.7138 24.1591C70.282 24.1591 68.6797 26.0114 68.6797 28.6932C68.6797 31.4034 70.2592 33.1761 72.8331 33.1761ZM70.3786 27.875C70.4467 26.6364 71.3445 25.5625 72.7251 25.5625C74.0433 25.5625 74.907 26.5398 74.9126 27.875H70.3786ZM81.0021 33.1932C82.4453 33.1932 83.2578 32.4602 83.5817 31.8068H83.6499V33H85.3089V27.2045C85.3089 24.6648 83.3089 24.1591 81.9226 24.1591C80.343 24.1591 78.8885 24.7955 78.3203 26.3864L79.9169 26.75C80.1669 26.1307 80.8033 25.5341 81.9453 25.5341C83.0419 25.5341 83.6044 26.108 83.6044 27.0966V27.1364C83.6044 27.7557 82.968 27.7443 81.3999 27.9261C79.7464 28.1193 78.0533 28.5511 78.0533 30.5341C78.0533 32.25 79.343 33.1932 81.0021 33.1932ZM81.3714 31.8295C80.4112 31.8295 79.718 31.3977 79.718 30.5568C79.718 29.6477 80.5249 29.3239 81.5078 29.1932C82.0589 29.1193 83.3658 28.9716 83.6101 28.7273V29.8523C83.6101 30.8864 82.7862 31.8295 81.3714 31.8295ZM89.2706 21.3636H87.5717V33H89.2706V21.3636ZM95.63 24.2727H93.8402V22.1818H92.1413V24.2727H90.8629V25.6364H92.1413V30.7898C92.1357 32.375 93.3459 33.142 94.6868 33.1136C95.2266 33.108 95.5902 33.0057 95.7891 32.9318L95.4822 31.5284C95.3686 31.5511 95.1584 31.6023 94.8857 31.6023C94.3345 31.6023 93.8402 31.4205 93.8402 30.4375V25.6364H95.63V24.2727ZM99.3956 27.8182C99.3956 26.4261 100.276 25.6307 101.487 25.6307C102.657 25.6307 103.356 26.375 103.356 27.6534V33H105.055V27.4489C105.055 25.2727 103.862 24.1591 102.066 24.1591C100.708 24.1591 99.8899 24.75 99.4808 25.6932H99.3729V21.3636H97.6967V33H99.3956V27.8182ZM108.083 36.25C109.487 36.25 110.379 35.517 110.879 34.1648L114.487 24.2898L112.651 24.2727L110.441 31.0455H110.35L108.14 24.2727H106.322L109.515 33.1136L109.305 33.6932C108.873 34.8239 108.265 34.9261 107.333 34.6705L106.924 36.0625C107.129 36.1591 107.572 36.25 108.083 36.25Z" fill="#636363"/>
<path d="M250.267 21.3636V29.0341C250.267 30.6648 248.966 31.5795 247.398 31.5795C245.841 31.5795 244.534 30.6648 244.534 29.0341V21.3636H242.778V29.0625C242.778 31.6875 244.824 33.1932 247.398 33.1932C249.972 33.1932 252.023 31.6875 252.023 29.0625V21.3636H250.267ZM256.138 27.8182C256.138 26.4261 256.99 25.6307 258.172 25.6307C259.325 25.6307 260.024 26.3864 260.024 27.6534V33H261.723V27.4489C261.723 25.2898 260.536 24.1591 258.751 24.1591C257.439 24.1591 256.581 24.767 256.178 25.6932H256.07V24.2727H254.439V33H256.138V27.8182ZM265.7 27.8182C265.7 26.4261 266.581 25.6307 267.791 25.6307C268.962 25.6307 269.661 26.375 269.661 27.6534V33H271.359V27.4489C271.359 25.2727 270.166 24.1591 268.371 24.1591C267.013 24.1591 266.195 24.75 265.786 25.6932H265.678V21.3636H264.001V33H265.7V27.8182ZM277.388 33.1761C279.291 33.1761 280.638 32.2386 281.024 30.8182L279.416 30.5284C279.109 31.3523 278.371 31.7727 277.405 31.7727C275.95 31.7727 274.973 30.8295 274.928 29.1477H281.132V28.5455C281.132 25.392 279.246 24.1591 277.268 24.1591C274.837 24.1591 273.234 26.0114 273.234 28.6932C273.234 31.4034 274.814 33.1761 277.388 33.1761ZM274.933 27.875C275.001 26.6364 275.899 25.5625 277.28 25.5625C278.598 25.5625 279.462 26.5398 279.467 27.875H274.933ZM285.557 33.1932C287 33.1932 287.812 32.4602 288.136 31.8068H288.205V33H289.864V27.2045C289.864 24.6648 287.864 24.1591 286.477 24.1591C284.898 24.1591 283.443 24.7955 282.875 26.3864L284.472 26.75C284.722 26.1307 285.358 25.5341 286.5 25.5341C287.597 25.5341 288.159 26.108 288.159 27.0966V27.1364C288.159 27.7557 287.523 27.7443 285.955 27.9261C284.301 28.1193 282.608 28.5511 282.608 30.5341C282.608 32.25 283.898 33.1932 285.557 33.1932ZM285.926 31.8295C284.966 31.8295 284.273 31.3977 284.273 30.5568C284.273 29.6477 285.08 29.3239 286.062 29.1932C286.614 29.1193 287.92 28.9716 288.165 28.7273V29.8523C288.165 30.8864 287.341 31.8295 285.926 31.8295ZM293.825 21.3636H292.126V33H293.825V21.3636ZM300.185 24.2727H298.395V22.1818H296.696V24.2727H295.418V25.6364H296.696V30.7898C296.69 32.375 297.901 33.142 299.241 33.1136C299.781 33.108 300.145 33.0057 300.344 32.9318L300.037 31.5284C299.923 31.5511 299.713 31.6023 299.44 31.6023C298.889 31.6023 298.395 31.4205 298.395 30.4375V25.6364H300.185V24.2727ZM303.95 27.8182C303.95 26.4261 304.831 25.6307 306.041 25.6307C307.212 25.6307 307.911 26.375 307.911 27.6534V33H309.609V27.4489C309.609 25.2727 308.416 24.1591 306.621 24.1591C305.263 24.1591 304.445 24.75 304.036 25.6932H303.928V21.3636H302.251V33H303.95V27.8182ZM312.638 36.25C314.041 36.25 314.933 35.517 315.433 34.1648L319.041 24.2898L317.206 24.2727L314.996 31.0455H314.905L312.695 24.2727H310.876L314.07 33.1136L313.859 33.6932C313.428 34.8239 312.82 34.9261 311.888 34.6705L311.479 36.0625C311.683 36.1591 312.126 36.25 312.638 36.25Z" fill="#636363"/>
<mask id="path-4-inside-1" fill="white">
<rect x="98" y="133" width="27" height="17" rx="2"/>
</mask>
<rect x="98" y="133" width="27" height="17" rx="2" fill="white" stroke="#636363" stroke-width="6" stroke-linecap="round" stroke-linejoin="round" mask="url(#path-4-inside-1)"/>
<g opacity="0.6">
<mask id="path-5-inside-2" fill="white">
<rect x="295" y="132" width="27" height="17" rx="2"/>
</mask>
<rect x="295" y="132" width="27" height="17" rx="2" fill="white" stroke="#636363" stroke-width="6" stroke-linecap="round" stroke-linejoin="round" mask="url(#path-5-inside-2)"/>
</g>
<mask id="path-6-inside-3" fill="white">
<rect x="92" y="142" width="27" height="17" rx="2"/>
</mask>
<rect x="92" y="142" width="27" height="17" rx="2" fill="white" stroke="#636363" stroke-width="6" stroke-linecap="round" stroke-linejoin="round" mask="url(#path-6-inside-3)"/>
<g opacity="0.6">
<mask id="path-7-inside-4" fill="white">
<rect x="325" y="132" width="27" height="17" rx="2"/>
</mask>
<rect x="325" y="132" width="27" height="17" rx="2" fill="white" stroke="#636363" stroke-width="6" stroke-linecap="round" stroke-linejoin="round" mask="url(#path-7-inside-4)"/>
</g>
<mask id="path-8-inside-5" fill="white">
<rect x="132" y="150" width="27" height="17" rx="2"/>
</mask>
<rect x="132" y="150" width="27" height="17" rx="2" fill="white" stroke="#636363" stroke-width="6" stroke-linecap="round" stroke-linejoin="round" mask="url(#path-8-inside-5)"/>
<g opacity="0.6">
<mask id="path-9-inside-6" fill="white">
<rect x="220" y="145" width="27" height="17" rx="2"/>
</mask>
<rect x="220" y="145" width="27" height="17" rx="2" fill="white" stroke="#636363" stroke-width="6" stroke-linecap="round" stroke-linejoin="round" mask="url(#path-9-inside-6)"/>
</g>
<mask id="path-10-inside-7" fill="white">
<rect x="116" y="170" width="27" height="17" rx="2"/>
</mask>
<rect x="116" y="170" width="27" height="17" rx="2" fill="white" stroke="#636363" stroke-width="6" stroke-linecap="round" stroke-linejoin="round" mask="url(#path-10-inside-7)"/>
<g opacity="0.6">
<mask id="path-11-inside-8" fill="white">
<rect x="250" y="153" width="27" height="17" rx="2"/>
</mask>
<rect x="250" y="153" width="27" height="17" rx="2" fill="white" stroke="#636363" stroke-width="6" stroke-linecap="round" stroke-linejoin="round" mask="url(#path-11-inside-8)"/>
</g>
<mask id="path-12-inside-9" fill="white">
<rect x="40" y="160" width="27" height="17" rx="2"/>
</mask>
<rect x="40" y="160" width="27" height="17" rx="2" fill="white" stroke="#636363" stroke-width="6" stroke-linecap="round" stroke-linejoin="round" mask="url(#path-12-inside-9)"/>
<g opacity="0.6">
<mask id="path-13-inside-10" fill="white">
<rect x="220" y="164" width="27" height="17" rx="2"/>
</mask>
<rect x="220" y="164" width="27" height="17" rx="2" fill="white" stroke="#636363" stroke-width="6" stroke-linecap="round" stroke-linejoin="round" mask="url(#path-13-inside-10)"/>
</g>
<mask id="path-14-inside-11" fill="white">
<rect x="53" y="178" width="27" height="17" rx="2"/>
</mask>
<rect x="53" y="178" width="27" height="17" rx="2" fill="white" stroke="#636363" stroke-width="6" stroke-linecap="round" stroke-linejoin="round" mask="url(#path-14-inside-11)"/>
<g opacity="0.6">
<mask id="path-15-inside-12" fill="white">
<rect x="250" y="172" width="27" height="17" rx="2"/>
</mask>
<rect x="250" y="172" width="27" height="17" rx="2" fill="white" stroke="#636363" stroke-width="6" stroke-linecap="round" stroke-linejoin="round" mask="url(#path-15-inside-12)"/>
</g>
<mask id="path-16-inside-13" fill="white">
<rect x="43" y="101" width="27" height="17" rx="2"/>
</mask>
<rect x="43" y="101" width="27" height="17" rx="2" fill="white" stroke="#636363" stroke-width="6" stroke-linecap="round" stroke-linejoin="round" mask="url(#path-16-inside-13)"/>
<g opacity="0.6">
<mask id="path-17-inside-14" fill="white">
<rect x="319" y="94" width="27" height="17" rx="2"/>
</mask>
<rect x="319" y="94" width="27" height="17" rx="2" fill="white" stroke="#636363" stroke-width="6" stroke-linecap="round" stroke-linejoin="round" mask="url(#path-17-inside-14)"/>
</g>
<g opacity="0.6">
<mask id="path-18-inside-15" fill="white">
<rect x="311" y="150" width="27" height="17" rx="2"/>
</mask>
<rect x="311" y="150" width="27" height="17" rx="2" fill="white" stroke="#636363" stroke-width="6" stroke-linecap="round" stroke-linejoin="round" mask="url(#path-18-inside-15)"/>
</g>
<g opacity="0.6">
<mask id="path-19-inside-16" fill="white">
<rect x="251" y="71" width="27" height="17" rx="2"/>
</mask>
<rect x="251" y="71" width="27" height="17" rx="2" fill="white" stroke="#636363" stroke-width="6" stroke-linecap="round" stroke-linejoin="round" mask="url(#path-19-inside-16)"/>
</g>
<g opacity="0.6">
<mask id="path-20-inside-17" fill="white">
<rect x="220" y="71" width="27" height="17" rx="2"/>
</mask>
<rect x="220" y="71" width="27" height="17" rx="2" fill="white" stroke="#636363" stroke-width="6" stroke-linecap="round" stroke-linejoin="round" mask="url(#path-20-inside-17)"/>
</g>
<mask id="path-21-inside-18" fill="white">
<rect x="89" y="80" width="27" height="17" rx="2"/>
</mask>
<rect x="89" y="80" width="27" height="17" rx="2" fill="white" stroke="#636363" stroke-width="6" stroke-linecap="round" stroke-linejoin="round" mask="url(#path-21-inside-18)"/>
<g opacity="0.6">
<mask id="path-22-inside-19" fill="white">
<rect x="252" y="89" width="27" height="17" rx="2"/>
</mask>
<rect x="252" y="89" width="27" height="17" rx="2" fill="white" stroke="#636363" stroke-width="6" stroke-linecap="round" stroke-linejoin="round" mask="url(#path-22-inside-19)"/>
</g>
<mask id="path-23-inside-20" fill="white">
<rect x="105" y="88" width="27" height="17" rx="2"/>
</mask>
<rect x="105" y="88" width="27" height="17" rx="2" fill="white" stroke="#636363" stroke-width="6" stroke-linecap="round" stroke-linejoin="round" mask="url(#path-23-inside-20)"/>
<mask id="path-24-inside-21" fill="white">
<rect x="119" y="63" width="27" height="17" rx="2"/>
</mask>
<rect x="119" y="63" width="27" height="17" rx="2" fill="white" stroke="#636363" stroke-width="6" stroke-linecap="round" stroke-linejoin="round" mask="url(#path-24-inside-21)"/>
<g opacity="0.6">
<mask id="path-25-inside-22" fill="white">
<rect x="224" y="89" width="27" height="17" rx="2"/>
</mask>
<rect x="224" y="89" width="27" height="17" rx="2" fill="white" stroke="#636363" stroke-width="6" stroke-linecap="round" stroke-linejoin="round" mask="url(#path-25-inside-22)"/>
</g>
<mask id="path-26-inside-23" fill="white">
<rect x="33" y="121" width="27" height="17" rx="2"/>
</mask>
<rect x="33" y="121" width="27" height="17" rx="2" fill="white" stroke="#636363" stroke-width="6" stroke-linecap="round" stroke-linejoin="round" mask="url(#path-26-inside-23)"/>
<g opacity="0.6">
<mask id="path-27-inside-24" fill="white">
<rect x="325" y="113" width="27" height="17" rx="2"/>
</mask>
<rect x="325" y="113" width="27" height="17" rx="2" fill="white" stroke="#636363" stroke-width="6" stroke-linecap="round" stroke-linejoin="round" mask="url(#path-27-inside-24)"/>
</g>
<mask id="path-28-inside-25" fill="white">
<rect x="53" y="113" width="27" height="17" rx="2"/>
</mask>
<rect x="53" y="113" width="27" height="17" rx="2" fill="white" stroke="#636363" stroke-width="6" stroke-linecap="round" stroke-linejoin="round" mask="url(#path-28-inside-25)"/>
<g opacity="0.6">
<mask id="path-29-inside-26" fill="white">
<rect x="295" y="113" width="27" height="17" rx="2"/>
</mask>
<rect x="295" y="113" width="27" height="17" rx="2" fill="white" stroke="#636363" stroke-width="6" stroke-linecap="round" stroke-linejoin="round" mask="url(#path-29-inside-26)"/>
</g>
<g opacity="0.6">
<mask id="path-30-inside-27" fill="white">
<rect x="237" y="107" width="27" height="17" rx="2"/>
</mask>
<rect x="237" y="107" width="27" height="17" rx="2" fill="white" stroke="#636363" stroke-width="6" stroke-linecap="round" stroke-linejoin="round" mask="url(#path-30-inside-27)"/>
</g>
</svg>
