<svg width="386" height="246" viewBox="0 0 386 246" fill="none" xmlns="http://www.w3.org/2000/svg">
<rect width="386" height="246" fill="white"/>
<path d="M49.1001 42C52.6456 42 54.6967 39.8011 54.6967 36.1648C54.6967 32.5455 52.6456 30.3636 49.2195 30.3636H45.3331V42H49.1001ZM47.0888 40.4659V31.8977H49.1115C51.657 31.8977 52.9695 33.4205 52.9695 36.1648C52.9695 38.9205 51.657 40.4659 49.0036 40.4659H47.0888ZM60.5163 42.1761C62.4197 42.1761 63.7663 41.2386 64.1527 39.8182L62.5447 39.5284C62.2322 40.3523 61.4993 40.7727 60.5277 40.7727C59.0788 40.7727 58.0959 39.8295 58.0504 38.1477H64.2607V37.5455C64.2607 34.392 62.3743 33.1591 60.3913 33.1591C57.9595 33.1591 56.3629 35.0114 56.3629 37.6932C56.3629 40.4034 57.9368 42.1761 60.5163 42.1761ZM58.0561 36.875C58.13 35.6364 59.022 34.5625 60.4084 34.5625C61.7266 34.5625 62.5902 35.5398 62.5902 36.875H58.0561ZM72.7053 35.4034C72.353 34.0455 71.2905 33.1591 69.4041 33.1591C67.4325 33.1591 66.0348 34.1989 66.0348 35.7443C66.0348 36.983 66.7848 37.8068 68.4212 38.1705L69.8984 38.4943C70.7393 38.6818 71.1314 39.0568 71.1314 39.6023C71.1314 40.2784 70.4098 40.8068 69.2962 40.8068C68.2791 40.8068 67.6257 40.3693 67.4212 39.5114L65.7791 39.7614C66.0632 41.3068 67.3473 42.1761 69.3075 42.1761C71.4155 42.1761 72.8757 41.0568 72.8757 39.4773C72.8757 38.2443 72.0916 37.483 70.4893 37.1136L69.103 36.7955C68.1428 36.5682 67.728 36.2443 67.7337 35.6534C67.728 34.983 68.4553 34.5057 69.4212 34.5057C70.478 34.5057 70.9666 35.0909 71.1655 35.6761L72.7053 35.4034ZM74.7436 42H76.4425V33.2727H74.7436V42ZM75.6016 31.9716C76.1811 31.9716 76.6754 31.5227 76.6754 30.9602C76.6754 30.3977 76.1811 29.9432 75.6016 29.9432C75.0163 29.9432 74.5277 30.3977 74.5277 30.9602C74.5277 31.5227 75.0163 31.9716 75.6016 31.9716ZM78.728 42H80.4268V36.6705C80.4268 35.5341 81.3075 34.7102 82.4837 34.7102C82.8132 34.7102 83.0689 34.7784 83.2734 34.8807L83.8189 33.4602C83.5291 33.267 83.1541 33.142 82.6768 33.142C81.6428 33.142 80.7791 33.7216 80.4609 34.6591H80.37V33.2727H78.728V42ZM88.5632 42.1761C90.4666 42.1761 91.8132 41.2386 92.1996 39.8182L90.5916 39.5284C90.2791 40.3523 89.5462 40.7727 88.5746 40.7727C87.1257 40.7727 86.1428 39.8295 86.0973 38.1477H92.3075V37.5455C92.3075 34.392 90.4212 33.1591 88.4382 33.1591C86.0064 33.1591 84.4098 35.0114 84.4098 37.6932C84.4098 40.4034 85.9837 42.1761 88.5632 42.1761ZM86.103 36.875C86.1768 35.6364 87.0689 34.5625 88.4553 34.5625C89.7734 34.5625 90.6371 35.5398 90.6371 36.875H86.103ZM101.803 42V30.3636H100.104V34.6875H100.002C99.701 34.1477 99.1158 33.1591 97.4964 33.1591C95.3885 33.1591 93.8317 34.8239 93.8317 37.6534C93.8317 40.4773 95.3658 42.1705 97.4794 42.1705C99.0703 42.1705 99.6953 41.1989 100.002 40.642H100.144V42H101.803ZM100.138 37.6364C100.138 39.4716 99.3203 40.7216 97.8601 40.7216C96.343 40.7216 95.5476 39.3864 95.5476 37.6364C95.5476 35.9034 96.3203 34.6023 97.8601 34.6023C99.343 34.6023 100.138 35.8125 100.138 37.6364ZM24.9858 51.875H28.6108V62H30.3608V51.875H33.9915V50.3636H24.9858V51.875ZM38.3523 62.1761C40.2557 62.1761 41.6023 61.2386 41.9886 59.8182L40.3807 59.5284C40.0682 60.3523 39.3352 60.7727 38.3636 60.7727C36.9148 60.7727 35.9318 59.8295 35.8864 58.1477H42.0966V57.5455C42.0966 54.392 40.2102 53.1591 38.2273 53.1591C35.7955 53.1591 34.1989 55.0114 34.1989 57.6932C34.1989 60.4034 35.7727 62.1761 38.3523 62.1761ZM35.892 56.875C35.9659 55.6364 36.858 54.5625 38.2443 54.5625C39.5625 54.5625 40.4261 55.5398 40.4261 56.875H35.892ZM44.0014 62H45.7003V56.6193C45.7003 55.4432 46.5241 54.625 47.4901 54.625C48.4332 54.625 49.0866 55.25 49.0866 56.1989V62H50.7798V56.4375C50.7798 55.3864 51.4219 54.625 52.5298 54.625C53.4276 54.625 54.1662 55.125 54.1662 56.3068V62H55.8651V56.1477C55.8651 54.1534 54.7514 53.1591 53.1719 53.1591C51.9162 53.1591 50.973 53.7614 50.5526 54.6932H50.4616C50.081 53.7386 49.2798 53.1591 48.1151 53.1591C46.9616 53.1591 46.1037 53.733 45.7401 54.6932H45.6321V53.2727H44.0014V62ZM62.4659 62.1705C64.5852 62.1705 66.1136 60.4773 66.1136 57.6534C66.1136 54.8239 64.5625 53.1591 62.4489 53.1591C60.8295 53.1591 60.2443 54.1477 59.9432 54.6875H59.8011V53.2727H58.142V65.2727H59.8409V60.642H59.9432C60.25 61.1989 60.8693 62.1705 62.4659 62.1705ZM62.0852 60.7216C60.625 60.7216 59.8125 59.4773 59.8068 57.6364C59.8125 55.8182 60.6023 54.6023 62.0852 54.6023C63.625 54.6023 64.3977 55.9034 64.3977 57.6364C64.3977 59.3864 63.6023 60.7216 62.0852 60.7216ZM71.7898 62.1761C73.6932 62.1761 75.0398 61.2386 75.4261 59.8182L73.8182 59.5284C73.5057 60.3523 72.7727 60.7727 71.8011 60.7727C70.3523 60.7727 69.3693 59.8295 69.3239 58.1477H75.5341V57.5455C75.5341 54.392 73.6477 53.1591 71.6648 53.1591C69.233 53.1591 67.6364 55.0114 67.6364 57.6932C67.6364 60.4034 69.2102 62.1761 71.7898 62.1761ZM69.3295 56.875C69.4034 55.6364 70.2955 54.5625 71.6818 54.5625C73 54.5625 73.8636 55.5398 73.8636 56.875H69.3295ZM77.4389 62H79.1378V56.6705C79.1378 55.5341 80.0185 54.7102 81.1946 54.7102C81.5241 54.7102 81.7798 54.7784 81.9844 54.8807L82.5298 53.4602C82.2401 53.267 81.8651 53.142 81.3878 53.142C80.3537 53.142 79.4901 53.7216 79.1719 54.6591H79.081V53.2727H77.4389V62ZM86.2756 62.1932C87.7188 62.1932 88.5312 61.4602 88.8551 60.8068H88.9233V62H90.5824V56.2045C90.5824 53.6648 88.5767 53.1591 87.2074 53.1591C85.6108 53.1591 84.1619 53.7955 83.5938 55.3864L85.1903 55.75C85.4403 55.1307 86.0767 54.5341 87.2188 54.5341C88.3267 54.5341 88.8778 55.1136 88.8778 56.1136C88.8835 56.6818 88.3608 56.7386 87.0994 56.8807C86.9631 56.892 86.821 56.9091 86.6733 56.9261C85.0199 57.1193 83.3267 57.5511 83.3267 59.5341C83.3267 61.25 84.6165 62.1932 86.2756 62.1932ZM86.6449 60.8295C85.6847 60.8295 84.9915 60.3977 84.9915 59.5568C84.9915 58.6477 85.7983 58.3239 86.7812 58.1932C87.3324 58.1193 88.6392 57.9716 88.8835 57.7273V58.8523C88.8835 59.8864 88.0597 60.8295 86.6449 60.8295ZM96.919 53.2727H95.1293V51.1818H93.4304V53.2727H92.152V54.6364H93.4304V59.7841C93.4247 61.3636 94.6349 62.1307 95.9759 62.108C96.5156 62.1023 96.8793 62 97.0781 61.9261L96.7713 60.5227C96.6577 60.5455 96.4474 60.5966 96.1747 60.5966C95.6236 60.5966 95.1236 60.4148 95.1293 59.4318V54.6364H96.919V53.2727ZM104.389 58.3807C104.395 59.8636 103.293 60.5682 102.338 60.5682C101.287 60.5682 100.56 59.8068 100.56 58.6193V53.2727H98.8608V58.8239C98.8608 60.9886 100.048 62.1136 101.724 62.1136C103.037 62.1136 103.929 61.4205 104.332 60.4886H104.423V62H106.094V53.2727H104.389V58.3807ZM108.376 62H110.075V56.6705C110.075 55.5341 110.956 54.7102 112.132 54.7102C112.462 54.7102 112.717 54.7784 112.922 54.8807L113.467 53.4602C113.178 53.267 112.803 53.142 112.325 53.142C111.291 53.142 110.428 53.7216 110.109 54.6591H110.018V53.2727H108.376V62ZM118.212 62.1761C120.115 62.1761 121.462 61.2386 121.848 59.8182L120.24 59.5284C119.928 60.3523 119.195 60.7727 118.223 60.7727C116.774 60.7727 115.791 59.8295 115.746 58.1477H121.956V57.5455C121.956 54.392 120.07 53.1591 118.087 53.1591C115.655 53.1591 114.058 55.0114 114.058 57.6932C114.058 60.4034 115.632 62.1761 118.212 62.1761ZM115.751 56.875C115.825 55.6364 116.717 54.5625 118.104 54.5625C119.422 54.5625 120.286 55.5398 120.286 56.875H115.751Z" fill="#636363"/>
<path d="M197.694 60C201.239 60 203.29 57.8011 203.29 54.1648C203.29 50.5455 201.239 48.3636 197.813 48.3636H193.927V60H197.694ZM195.683 58.4659V49.8977H197.705C200.251 49.8977 201.563 51.4205 201.563 54.1648C201.563 56.9205 200.251 58.4659 197.597 58.4659H195.683ZM205.337 60H207.036V51.2727H205.337V60ZM206.195 49.9716C206.775 49.9716 207.269 49.5227 207.269 48.9602C207.269 48.3977 206.775 47.9432 206.195 47.9432C205.61 47.9432 205.121 48.3977 205.121 48.9602C205.121 49.5227 205.61 49.9716 206.195 49.9716ZM215.862 53.4034C215.509 52.0455 214.447 51.1591 212.56 51.1591C210.589 51.1591 209.191 52.1989 209.191 53.7443C209.191 54.983 209.941 55.8068 211.577 56.1705L213.055 56.4943C213.896 56.6818 214.288 57.0568 214.288 57.6023C214.288 58.2784 213.566 58.8068 212.452 58.8068C211.435 58.8068 210.782 58.3693 210.577 57.5114L208.935 57.7614C209.219 59.3068 210.504 60.1761 212.464 60.1761C214.572 60.1761 216.032 59.0568 216.032 57.4773C216.032 56.2443 215.248 55.483 213.646 55.1136L212.259 54.7955C211.299 54.5682 210.884 54.2443 210.89 53.6534C210.884 52.983 211.612 52.5057 212.577 52.5057C213.634 52.5057 214.123 53.0909 214.322 53.6761L215.862 53.4034ZM221.587 60.1761C223.65 60.1761 224.985 58.9375 225.173 57.2386H223.519C223.303 58.1818 222.57 58.7386 221.593 58.7386C220.156 58.7386 219.229 57.5398 219.229 55.6364C219.229 53.767 220.173 52.5909 221.593 52.5909C222.678 52.5909 223.337 53.2727 223.519 54.0909H225.173C224.985 52.3295 223.553 51.1591 221.565 51.1591C219.11 51.1591 217.519 53.0114 217.519 55.6761C217.519 58.3068 219.053 60.1761 221.587 60.1761ZM226.994 60H228.692V54.6705C228.692 53.5341 229.573 52.7102 230.749 52.7102C231.079 52.7102 231.335 52.7784 231.539 52.8807L232.085 51.4602C231.795 51.267 231.42 51.142 230.942 51.142C229.908 51.142 229.045 51.7216 228.727 52.6591H228.636V51.2727H226.994V60ZM236.829 60.1761C238.732 60.1761 240.079 59.2386 240.465 57.8182L238.857 57.5284C238.545 58.3523 237.812 58.7727 236.84 58.7727C235.391 58.7727 234.408 57.8295 234.363 56.1477H240.573V55.5455C240.573 52.392 238.687 51.1591 236.704 51.1591C234.272 51.1591 232.675 53.0114 232.675 55.6932C232.675 58.4034 234.249 60.1761 236.829 60.1761ZM234.369 54.875C234.442 53.6364 235.335 52.5625 236.721 52.5625C238.039 52.5625 238.903 53.5398 238.903 54.875H234.369ZM246.802 60.1705C248.921 60.1705 250.45 58.4773 250.45 55.6534C250.45 52.8239 248.898 51.1591 246.785 51.1591C245.165 51.1591 244.58 52.1477 244.279 52.6875H244.137V51.2727H242.478V63.2727H244.177V58.642H244.279C244.586 59.1989 245.205 60.1705 246.802 60.1705ZM246.421 58.7216C244.961 58.7216 244.148 57.4773 244.143 55.6364C244.148 53.8182 244.938 52.6023 246.421 52.6023C247.961 52.6023 248.734 53.9034 248.734 55.6364C248.734 57.3864 247.938 58.7216 246.421 58.7216ZM256.126 60.1761C258.029 60.1761 259.376 59.2386 259.762 57.8182L258.154 57.5284C257.842 58.3523 257.109 58.7727 256.137 58.7727C254.688 58.7727 253.705 57.8295 253.66 56.1477H259.87V55.5455C259.87 52.392 257.984 51.1591 256.001 51.1591C253.569 51.1591 251.972 53.0114 251.972 55.6932C251.972 58.4034 253.546 60.1761 256.126 60.1761ZM253.665 54.875C253.739 53.6364 254.631 52.5625 256.018 52.5625C257.336 52.5625 258.2 53.5398 258.2 54.875H253.665ZM263.474 54.8182C263.474 53.4261 264.326 52.6307 265.508 52.6307C266.661 52.6307 267.36 53.3864 267.36 54.6534V60H269.059V54.4489C269.059 52.2898 267.871 51.1591 266.087 51.1591C264.775 51.1591 263.917 51.767 263.513 52.6932H263.406V51.2727H261.775V60H263.474V54.8182ZM275.025 60.1761C277.087 60.1761 278.423 58.9375 278.61 57.2386H276.957C276.741 58.1818 276.008 58.7386 275.031 58.7386C273.593 58.7386 272.667 57.5398 272.667 55.6364C272.667 53.767 273.61 52.5909 275.031 52.5909C276.116 52.5909 276.775 53.2727 276.957 54.0909H278.61C278.423 52.3295 276.991 51.1591 275.002 51.1591C272.548 51.1591 270.957 53.0114 270.957 55.6761C270.957 58.3068 272.491 60.1761 275.025 60.1761ZM281.442 63.392C282.852 63.392 283.766 62.6307 284.261 61.2727L287.897 51.2727H286.073L283.863 58.0455H283.772L281.562 51.2727H279.744L282.96 60.1307L282.687 60.8011C282.238 61.9261 281.653 62.0341 280.715 61.7841L280.306 63.1932C280.488 63.2784 280.914 63.392 281.442 63.392Z" fill="#636363"/>
<path d="M215.544 133H220.004C222.709 133 223.93 131.653 223.93 129.869C223.93 128.068 222.669 127.051 221.516 126.989V126.875C222.584 126.602 223.476 125.875 223.476 124.42C223.476 122.699 222.283 121.364 219.805 121.364H215.544V133ZM217.3 131.494V127.767H219.896C221.305 127.767 222.186 128.676 222.186 129.784C222.186 130.761 221.521 131.494 219.834 131.494H217.3ZM217.3 126.398V122.858H219.697C221.089 122.858 221.754 123.591 221.754 124.557C221.754 125.682 220.834 126.398 219.652 126.398H217.3Z" fill="#636363"/>
<path d="M297.201 161.148C296.803 158.659 294.854 157.205 292.394 157.205C289.383 157.205 287.161 159.46 287.161 163.182C287.161 166.903 289.371 169.159 292.394 169.159C294.951 169.159 296.82 167.557 297.201 165.256L295.428 165.25C295.127 166.739 293.877 167.557 292.406 167.557C290.411 167.557 288.906 166.028 288.906 163.182C288.906 160.358 290.406 158.807 292.411 158.807C293.894 158.807 295.138 159.642 295.428 161.148H297.201ZM302.853 169.176C305.308 169.176 306.921 167.375 306.921 164.676C306.921 161.96 305.308 160.159 302.853 160.159C300.393 160.159 298.785 161.96 298.785 164.676C298.785 167.375 300.393 169.176 302.853 169.176ZM302.853 167.75C301.251 167.75 300.495 166.347 300.495 164.67C300.495 163 301.251 161.58 302.853 161.58C304.45 161.58 305.205 163 305.205 164.67C305.205 166.347 304.45 167.75 302.853 167.75ZM312.509 169.176C314.964 169.176 316.577 167.375 316.577 164.676C316.577 161.96 314.964 160.159 312.509 160.159C310.049 160.159 308.441 161.96 308.441 164.676C308.441 167.375 310.049 169.176 312.509 169.176ZM312.509 167.75C310.907 167.75 310.151 166.347 310.151 164.67C310.151 163 310.907 161.58 312.509 161.58C314.106 161.58 314.862 163 314.862 164.67C314.862 166.347 314.106 167.75 312.509 167.75ZM320.177 157.364H318.478V169H320.177V157.364ZM322.462 169H324.161V160.273H322.462V169ZM323.32 158.972C323.9 158.972 324.394 158.523 324.394 157.96C324.394 157.398 323.9 156.943 323.32 156.943C322.735 156.943 322.246 157.398 322.246 157.96C322.246 158.523 322.735 158.972 323.32 158.972ZM328.146 163.818C328.146 162.426 328.998 161.631 330.18 161.631C331.333 161.631 332.032 162.386 332.032 163.653V169H333.731V163.449C333.731 161.29 332.543 160.159 330.759 160.159C329.447 160.159 328.589 160.767 328.185 161.693H328.077V160.273H326.447V169H328.146V163.818ZM339.538 172.312C341.827 172.312 343.6 171.193 343.6 168.943V160.273H341.941V161.688H341.816C341.515 161.148 340.913 160.159 339.288 160.159C337.18 160.159 335.629 161.824 335.629 164.602C335.629 167.386 337.214 168.869 339.276 168.869C340.879 168.869 341.498 167.966 341.805 167.409H341.924V168.835C341.941 170.188 340.844 170.886 339.538 170.886C338.174 170.886 337.538 170.119 337.202 169.699L335.958 170.608C336.526 171.523 337.634 172.312 339.538 172.312ZM339.651 167.46C338.134 167.46 337.344 166.295 337.344 164.58C337.344 162.903 338.117 161.602 339.651 161.602C341.134 161.602 341.93 162.812 341.93 164.58C341.93 166.381 341.117 167.46 339.651 167.46Z" fill="#636363"/>
<path d="M330.476 130.527H325.712V125.818H323.302V130.527H318.538V132.928H323.302V137.636H325.712V132.928H330.476V130.527Z" fill="#636363"/>
<path d="M166.476 220.527H161.712V215.818H159.302V220.527H154.538V222.928H159.302V227.636H161.712V222.928H166.476V220.527Z" fill="#636363"/>
<path d="M163.476 30.527H158.712V25.8182H156.302V30.527H151.538V32.9276H156.302V37.6364H158.712V32.9276H163.476V30.527Z" fill="#636363"/>
<path d="M161.505 87H149.493V89.3452H161.505V87Z" fill="#636363"/>
<path d="M100.871 172L101.939 168.92H106.484L107.547 172H109.411L105.223 160.364H103.195L99.0071 172H100.871ZM102.45 167.443L104.166 162.477H104.257L105.973 167.443H102.45ZM114.501 172.176C116.564 172.176 117.899 170.938 118.087 169.239H116.433C116.217 170.182 115.484 170.739 114.507 170.739C113.07 170.739 112.143 169.54 112.143 167.636C112.143 165.767 113.087 164.591 114.507 164.591C115.592 164.591 116.251 165.273 116.433 166.091H118.087C117.899 164.33 116.467 163.159 114.479 163.159C112.024 163.159 110.433 165.011 110.433 167.676C110.433 170.307 111.967 172.176 114.501 172.176ZM123.982 163.273H122.192V161.182H120.493V163.273H119.214V164.636H120.493V169.784C120.487 171.364 121.697 172.131 123.038 172.108C123.578 172.102 123.942 172 124.141 171.926L123.834 170.523C123.72 170.545 123.51 170.597 123.237 170.597C122.686 170.597 122.186 170.415 122.192 169.432V164.636H123.982V163.273ZM131.452 168.381C131.457 169.864 130.355 170.568 129.401 170.568C128.349 170.568 127.622 169.807 127.622 168.619V163.273H125.923V168.824C125.923 170.989 127.111 172.114 128.787 172.114C130.099 172.114 130.991 171.42 131.395 170.489H131.486V172H133.156V163.273H131.452V168.381ZM137.979 172.193C139.422 172.193 140.234 171.46 140.558 170.807H140.626V172H142.286V166.205C142.286 163.665 140.28 163.159 138.911 163.159C137.314 163.159 135.865 163.795 135.297 165.386L136.893 165.75C137.143 165.131 137.78 164.534 138.922 164.534C140.03 164.534 140.581 165.114 140.581 166.114C140.587 166.682 140.064 166.739 138.803 166.881C138.666 166.892 138.524 166.909 138.376 166.926C136.723 167.119 135.03 167.551 135.03 169.534C135.03 171.25 136.32 172.193 137.979 172.193ZM138.348 170.83C137.388 170.83 136.695 170.398 136.695 169.557C136.695 168.648 137.501 168.324 138.484 168.193C139.036 168.119 140.342 167.972 140.587 167.727V168.852C140.587 169.886 139.763 170.83 138.348 170.83ZM146.247 160.364H144.548V172H146.247V160.364ZM74.4858 181.875H78.1108V192H79.8608V181.875H83.4915V180.364H74.4858V181.875ZM87.8523 192.176C89.7557 192.176 91.1023 191.239 91.4886 189.818L89.8807 189.528C89.5682 190.352 88.8352 190.773 87.8636 190.773C86.4148 190.773 85.4318 189.83 85.3864 188.148H91.5966V187.545C91.5966 184.392 89.7102 183.159 87.7273 183.159C85.2955 183.159 83.6989 185.011 83.6989 187.693C83.6989 190.403 85.2727 192.176 87.8523 192.176ZM85.392 186.875C85.4659 185.636 86.358 184.562 87.7443 184.562C89.0625 184.562 89.9261 185.54 89.9261 186.875H85.392ZM93.5014 192H95.2003V186.619C95.2003 185.443 96.0241 184.625 96.9901 184.625C97.9332 184.625 98.5866 185.25 98.5866 186.199V192H100.28V186.438C100.28 185.386 100.922 184.625 102.03 184.625C102.928 184.625 103.666 185.125 103.666 186.307V192H105.365V186.148C105.365 184.153 104.251 183.159 102.672 183.159C101.416 183.159 100.473 183.761 100.053 184.693H99.9616C99.581 183.739 98.7798 183.159 97.6151 183.159C96.4616 183.159 95.6037 183.733 95.2401 184.693H95.1321V183.273H93.5014V192ZM111.966 192.17C114.085 192.17 115.614 190.477 115.614 187.653C115.614 184.824 114.062 183.159 111.949 183.159C110.33 183.159 109.744 184.148 109.443 184.688H109.301V183.273H107.642V195.273H109.341V190.642H109.443C109.75 191.199 110.369 192.17 111.966 192.17ZM111.585 190.722C110.125 190.722 109.312 189.477 109.307 187.636C109.312 185.818 110.102 184.602 111.585 184.602C113.125 184.602 113.898 185.903 113.898 187.636C113.898 189.386 113.102 190.722 111.585 190.722ZM121.29 192.176C123.193 192.176 124.54 191.239 124.926 189.818L123.318 189.528C123.006 190.352 122.273 190.773 121.301 190.773C119.852 190.773 118.869 189.83 118.824 188.148H125.034V187.545C125.034 184.392 123.148 183.159 121.165 183.159C118.733 183.159 117.136 185.011 117.136 187.693C117.136 190.403 118.71 192.176 121.29 192.176ZM118.83 186.875C118.903 185.636 119.795 184.562 121.182 184.562C122.5 184.562 123.364 185.54 123.364 186.875H118.83ZM126.939 192H128.638V186.67C128.638 185.534 129.518 184.71 130.695 184.71C131.024 184.71 131.28 184.778 131.484 184.881L132.03 183.46C131.74 183.267 131.365 183.142 130.888 183.142C129.854 183.142 128.99 183.722 128.672 184.659H128.581V183.273H126.939V192ZM135.776 192.193C137.219 192.193 138.031 191.46 138.355 190.807H138.423V192H140.082V186.205C140.082 183.665 138.077 183.159 136.707 183.159C135.111 183.159 133.662 183.795 133.094 185.386L134.69 185.75C134.94 185.131 135.577 184.534 136.719 184.534C137.827 184.534 138.378 185.114 138.378 186.114C138.384 186.682 137.861 186.739 136.599 186.881C136.463 186.892 136.321 186.909 136.173 186.926C134.52 187.119 132.827 187.551 132.827 189.534C132.827 191.25 134.116 192.193 135.776 192.193ZM136.145 190.83C135.185 190.83 134.491 190.398 134.491 189.557C134.491 188.648 135.298 188.324 136.281 188.193C136.832 188.119 138.139 187.972 138.384 187.727V188.852C138.384 189.886 137.56 190.83 136.145 190.83ZM146.419 183.273H144.629V181.182H142.93V183.273H141.652V184.636H142.93V189.784C142.925 191.364 144.135 192.131 145.476 192.108C146.016 192.102 146.379 192 146.578 191.926L146.271 190.523C146.158 190.545 145.947 190.597 145.675 190.597C145.124 190.597 144.624 190.415 144.629 189.432V184.636H146.419V183.273ZM153.889 188.381C153.895 189.864 152.793 190.568 151.838 190.568C150.787 190.568 150.06 189.807 150.06 188.619V183.273H148.361V188.824C148.361 190.989 149.548 192.114 151.224 192.114C152.537 192.114 153.429 191.42 153.832 190.489H153.923V192H155.594V183.273H153.889V188.381ZM157.876 192H159.575V186.67C159.575 185.534 160.456 184.71 161.632 184.71C161.962 184.71 162.217 184.778 162.422 184.881L162.967 183.46C162.678 183.267 162.303 183.142 161.825 183.142C160.791 183.142 159.928 183.722 159.609 184.659H159.518V183.273H157.876V192ZM167.712 192.176C169.615 192.176 170.962 191.239 171.348 189.818L169.74 189.528C169.428 190.352 168.695 190.773 167.723 190.773C166.274 190.773 165.291 189.83 165.246 188.148H171.456V187.545C171.456 184.392 169.57 183.159 167.587 183.159C165.155 183.159 163.558 185.011 163.558 187.693C163.558 190.403 165.132 192.176 167.712 192.176ZM165.251 186.875C165.325 185.636 166.217 184.562 167.604 184.562C168.922 184.562 169.786 185.54 169.786 186.875H165.251Z" fill="#636363"/>
<path d="M158.022 60.9251C157.335 60.1917 156.181 60.153 155.462 60.8548C144.769 71.2836 136.801 84.1916 132.272 98.4444C127.744 112.697 126.801 127.837 129.513 142.525C129.696 143.514 130.66 144.148 131.644 143.945V143.945C132.629 143.743 133.261 142.781 133.079 141.793C130.492 127.715 131.401 113.206 135.741 99.5467C140.081 85.8871 147.712 73.5142 157.951 63.5115C158.67 62.8091 158.709 61.6586 158.022 60.9251V60.9251Z" fill="#636363"/>
<path d="M296.453 78.2295C308.46 97.6968 312.696 120.972 308.317 143.421L304.744 142.724C308.948 121.173 304.882 98.829 293.355 80.1403L296.453 78.2295Z" fill="#636363"/>
<path d="M238.576 113.926C241.008 117.869 242.193 122.455 241.975 127.083C241.756 131.71 240.146 136.164 237.354 139.861C234.562 143.558 230.718 146.326 226.327 147.802C221.935 149.278 217.201 149.393 212.743 148.132C208.285 146.872 204.311 144.295 201.342 140.738C198.374 137.181 196.548 132.811 196.105 128.199C195.662 123.588 196.622 118.95 198.86 114.893C201.097 110.836 204.507 107.55 208.644 105.464L209.881 107.917C206.238 109.754 203.236 112.648 201.266 116.22C199.296 119.792 198.45 123.876 198.84 127.937C199.231 131.997 200.838 135.845 203.452 138.977C206.066 142.109 209.565 144.379 213.49 145.488C217.416 146.598 221.585 146.497 225.452 145.197C229.319 143.898 232.703 141.461 235.161 138.205C237.62 134.95 239.038 131.028 239.23 126.953C239.422 122.878 238.379 118.841 236.237 115.369L238.576 113.926Z" fill="#636363"/>
<path d="M289.714 183.275C276.131 200.047 257.028 211.444 235.817 215.433C214.606 219.421 192.669 215.741 173.92 205.05L175.724 201.888C193.722 212.151 214.782 215.684 235.144 211.855C255.507 208.026 273.845 197.085 286.886 180.984L289.714 183.275Z" fill="#636363"/>
<path d="M315.117 138.776L306.372 144.549C305.898 144.862 305.258 144.718 304.965 144.231L299 134.342" stroke="#636363" stroke-width="3" stroke-linecap="round"/>
<path d="M174.88 213.212L173.661 202.804C173.595 202.24 174.012 201.734 174.579 201.691L186.094 200.816" stroke="#636363" stroke-width="3" stroke-linecap="round"/>
<path d="M146.539 61.9171L156.884 60.2484C157.445 60.1579 157.969 60.5524 158.036 61.1166L159.41 72.5831" stroke="#636363" stroke-width="3" stroke-linecap="round"/>
<path d="M198.539 106.917L208.884 105.248C209.445 105.158 209.969 105.552 210.036 106.117L211.41 117.583" stroke="#636363" stroke-width="3" stroke-linecap="round"/>
<path d="M172.596 37.9071L181.265 45.4937L172.596 54.6231" stroke="#636363" stroke-width="3" stroke-linecap="round"/>
<path d="M124.5 45H179.5" stroke="#636363" stroke-width="3" stroke-linecap="round"/>
</svg>
