<svg width="386" height="246" viewBox="0 0 386 246" fill="none" xmlns="http://www.w3.org/2000/svg">
<g clip-path="url(#clip0)">
<rect width="386" height="246" fill="white"/>
<path d="M171.16 41.8109L172.228 38.7314H176.773L177.836 41.8109H179.7L175.512 30.1745H173.484L169.296 41.8109H171.16ZM172.739 37.2541L174.455 32.2882H174.546L176.262 37.2541H172.739Z" fill="#636363"/>
<path d="M266.544 183.811H271.004C273.709 183.811 274.93 182.464 274.93 180.68C274.93 178.879 273.669 177.862 272.516 177.8V177.686C273.584 177.413 274.476 176.686 274.476 175.231C274.476 173.51 273.283 172.175 270.805 172.175H266.544V183.811ZM268.3 182.305V178.578H270.896C272.305 178.578 273.186 179.487 273.186 180.595C273.186 181.572 272.521 182.305 270.834 182.305H268.3ZM268.3 177.209V173.669H270.697C272.089 173.669 272.754 174.402 272.754 175.368C272.754 176.493 271.834 177.209 270.652 177.209H268.3Z" fill="#636363"/>
<path d="M264.476 141.338H259.712V136.629H257.302V141.338H252.538V143.738H257.302V148.447H259.712V143.738H264.476V141.338Z" fill="#636363"/>
<path d="M209.476 47.3379H204.712V42.6291H202.302V47.3379H197.538V49.7385H202.302V54.4473H204.712V49.7385H209.476V47.3379Z" fill="#636363"/>
<path d="M154.476 66.3379H149.712V61.6291H147.302V66.3379H142.538V68.7385H147.302V73.4473H149.712V68.7385H154.476V66.3379Z" fill="#636363"/>
<path d="M243.476 178.338H238.712V173.629H236.302V178.338H231.538V180.738H236.302V185.447H238.712V180.738H243.476V178.338Z" fill="#636363"/>
<path d="M153.694 171.624H145.311V174.015H153.694V171.624Z" fill="#636363"/>
<path d="M126.694 141.624H118.311V144.015H126.694V141.624Z" fill="#636363"/>
<path d="M126.06 166.959C125.663 164.47 123.714 163.015 121.254 163.015C118.242 163.015 116.021 165.271 116.021 168.993C116.021 172.714 118.231 174.97 121.254 174.97C123.81 174.97 125.68 173.368 126.06 171.067L124.288 171.061C123.987 172.55 122.737 173.368 121.265 173.368C119.271 173.368 117.765 171.839 117.765 168.993C117.765 166.169 119.265 164.618 121.271 164.618C122.754 164.618 123.998 165.453 124.288 166.959H126.06Z" fill="#636363"/>
<path d="M254.436 189.719C238.093 203.816 217.272 211.645 195.69 211.808C174.108 211.972 153.171 204.46 136.616 190.613L138.951 187.82C154.844 201.114 174.944 208.325 195.662 208.168C216.381 208.011 236.369 200.496 252.058 186.963L254.436 189.719Z" fill="#636363"/>
<path d="M109.544 152.089C102.126 131.822 102.153 109.578 109.619 89.328C117.086 69.0783 131.507 52.1417 150.307 41.542L152.095 44.7127C134.047 54.8884 120.203 71.1476 113.035 90.5873C105.866 110.027 105.841 131.382 112.962 150.838L109.544 152.089Z" fill="#636363"/>
<path d="M198.968 29.8976C213.846 30.547 228.336 34.8376 241.169 42.393C254.002 49.9484 264.784 60.5377 272.57 73.2318C280.357 85.9259 284.908 100.337 285.827 115.2C286.745 130.064 284.001 144.925 277.837 158.481L274.523 156.974C280.441 143.961 283.075 129.693 282.194 115.425C281.312 101.156 276.942 87.3213 269.468 75.135C261.993 62.9487 251.642 52.7829 239.322 45.5298C227.003 38.2766 213.092 34.1576 198.809 33.5342L198.968 29.8976Z" fill="#636363"/>
<path d="M136.113 198.816L136.759 188.357C136.794 187.79 137.294 187.366 137.859 187.424L149.347 188.605" stroke="#636363" stroke-width="3" stroke-linecap="round"/>
<path d="M142.81 38.1749L152.367 42.4725C152.885 42.7055 153.105 43.323 152.852 43.8314L147.691 54.1626" stroke="#636363" stroke-width="3" stroke-linecap="round"/>
<path d="M286.419 155.379L276.201 157.701C275.647 157.827 275.099 157.466 274.996 156.907L272.898 145.551" stroke="#636363" stroke-width="3" stroke-linecap="round"/>
</g>
<defs>
<clipPath id="clip0">
<rect width="386" height="246" fill="white"/>
</clipPath>
</defs>
</svg>
