<svg width="386" height="246" viewBox="0 0 386 246" fill="none" xmlns="http://www.w3.org/2000/svg">
<rect width="386" height="246" fill="white"/>
<path d="M172.414 33.4205H174.107C174.056 31.5568 172.408 30.2045 170.045 30.2045C167.71 30.2045 165.92 31.5398 165.92 33.5455C165.92 35.1648 167.079 36.1136 168.948 36.6193L170.323 36.9943C171.567 37.3239 172.528 37.733 172.528 38.767C172.528 39.9034 171.442 40.6534 169.948 40.6534C168.596 40.6534 167.471 40.0511 167.369 38.7841H165.607C165.721 40.892 167.352 42.1932 169.96 42.1932C172.692 42.1932 174.266 40.7557 174.266 38.7841C174.266 36.6875 172.397 35.875 170.92 35.5114L169.783 35.2159C168.874 34.983 167.664 34.5568 167.67 33.4432C167.67 32.4545 168.573 31.7216 170.005 31.7216C171.34 31.7216 172.289 32.3466 172.414 33.4205ZM177.239 45.392C178.648 45.392 179.563 44.6307 180.058 43.2727L183.694 33.2727H181.87L179.66 40.0455H179.569L177.359 33.2727H175.54L178.756 42.1307L178.484 42.8011C178.035 43.9261 177.45 44.0341 176.512 43.7841L176.103 45.1932C176.285 45.2784 176.711 45.392 177.239 45.392ZM191.83 35.4034C191.478 34.0455 190.415 33.1591 188.529 33.1591C186.558 33.1591 185.16 34.1989 185.16 35.7443C185.16 36.983 185.91 37.8068 187.546 38.1705L189.023 38.4943C189.864 38.6818 190.256 39.0568 190.256 39.6023C190.256 40.2784 189.535 40.8068 188.421 40.8068C187.404 40.8068 186.751 40.3693 186.546 39.5114L184.904 39.7614C185.188 41.3068 186.472 42.1761 188.433 42.1761C190.54 42.1761 192.001 41.0568 192.001 39.4773C192.001 38.2443 191.217 37.483 189.614 37.1136L188.228 36.7955C187.268 36.5682 186.853 36.2443 186.859 35.6534C186.853 34.983 187.58 34.5057 188.546 34.5057C189.603 34.5057 190.092 35.0909 190.29 35.6761L191.83 35.4034ZM197.942 33.2727H196.153V31.1818H194.454V33.2727H193.175V34.6364H194.454V39.7841C194.448 41.3636 195.658 42.1307 196.999 42.108C197.539 42.1023 197.903 42 198.102 41.9261L197.795 40.5227C197.681 40.5455 197.471 40.5966 197.198 40.5966C196.647 40.5966 196.147 40.4148 196.153 39.4318V34.6364H197.942V33.2727ZM203.563 42.1761C205.467 42.1761 206.813 41.2386 207.2 39.8182L205.592 39.5284C205.279 40.3523 204.546 40.7727 203.575 40.7727C202.126 40.7727 201.143 39.8295 201.097 38.1477H207.308V37.5455C207.308 34.392 205.421 33.1591 203.438 33.1591C201.006 33.1591 199.41 35.0114 199.41 37.6932C199.41 40.4034 200.984 42.1761 203.563 42.1761ZM201.103 36.875C201.177 35.6364 202.069 34.5625 203.455 34.5625C204.773 34.5625 205.637 35.5398 205.637 36.875H201.103ZM209.212 42H210.911V36.6193C210.911 35.4432 211.735 34.625 212.701 34.625C213.644 34.625 214.298 35.25 214.298 36.1989V42H215.991V36.4375C215.991 35.3864 216.633 34.625 217.741 34.625C218.638 34.625 219.377 35.125 219.377 36.3068V42H221.076V36.1477C221.076 34.1534 219.962 33.1591 218.383 33.1591C217.127 33.1591 216.184 33.7614 215.763 34.6932H215.673C215.292 33.7386 214.491 33.1591 213.326 33.1591C212.173 33.1591 211.315 33.733 210.951 34.6932H210.843V33.2727H209.212V42ZM160.918 62L161.986 58.9205H166.531L167.594 62H169.457L165.27 50.3636H163.241L159.054 62H160.918ZM162.497 57.4432L164.213 52.4773H164.304L166.02 57.4432H162.497ZM178.452 62V50.3636H176.753V54.6875H176.651C176.349 54.1477 175.764 53.1591 174.145 53.1591C172.037 53.1591 170.48 54.8239 170.48 57.6534C170.48 60.4773 172.014 62.1705 174.128 62.1705C175.719 62.1705 176.344 61.1989 176.651 60.642H176.793V62H178.452ZM176.787 57.6364C176.787 59.4716 175.969 60.7216 174.509 60.7216C172.991 60.7216 172.196 59.3864 172.196 57.6364C172.196 55.9034 172.969 54.6023 174.509 54.6023C175.991 54.6023 176.787 55.8125 176.787 57.6364ZM184.423 62.1761C186.878 62.1761 188.491 60.375 188.491 57.6761C188.491 54.9602 186.878 53.1591 184.423 53.1591C181.963 53.1591 180.355 54.9602 180.355 57.6761C180.355 60.375 181.963 62.1761 184.423 62.1761ZM184.423 60.75C182.821 60.75 182.065 59.3466 182.065 57.6705C182.065 56 182.821 54.5795 184.423 54.5795C186.02 54.5795 186.776 56 186.776 57.6705C186.776 59.3466 186.02 60.75 184.423 60.75ZM194.716 62.1705C196.835 62.1705 198.364 60.4773 198.364 57.6534C198.364 54.8239 196.812 53.1591 194.699 53.1591C193.08 53.1591 192.494 54.1477 192.193 54.6875H192.051V53.2727H190.392V65.2727H192.091V60.642H192.193C192.5 61.1989 193.119 62.1705 194.716 62.1705ZM194.335 60.7216C192.875 60.7216 192.062 59.4773 192.057 57.6364C192.062 55.8182 192.852 54.6023 194.335 54.6023C195.875 54.6023 196.648 55.9034 196.648 57.6364C196.648 59.3864 195.852 60.7216 194.335 60.7216ZM204.341 53.2727H202.551V51.1818H200.852V53.2727H199.574V54.6364H200.852V59.7841C200.847 61.3636 202.057 62.1307 203.398 62.108C203.938 62.1023 204.301 62 204.5 61.9261L204.193 60.5227C204.08 60.5455 203.869 60.5966 203.597 60.5966C203.045 60.5966 202.545 60.4148 202.551 59.4318V54.6364H204.341V53.2727ZM206.283 62H207.982V53.2727H206.283V62ZM207.141 51.9716C207.72 51.9716 208.214 51.5227 208.214 50.9602C208.214 50.3977 207.72 49.9432 207.141 49.9432C206.555 49.9432 206.067 50.3977 206.067 50.9602C206.067 51.5227 206.555 51.9716 207.141 51.9716ZM213.955 62.1761C216.409 62.1761 218.023 60.375 218.023 57.6761C218.023 54.9602 216.409 53.1591 213.955 53.1591C211.494 53.1591 209.886 54.9602 209.886 57.6761C209.886 60.375 211.494 62.1761 213.955 62.1761ZM213.955 60.75C212.352 60.75 211.597 59.3466 211.597 57.6705C211.597 56 212.352 54.5795 213.955 54.5795C215.551 54.5795 216.307 56 216.307 57.6705C216.307 59.3466 215.551 60.75 213.955 60.75ZM221.622 56.8182C221.622 55.4261 222.474 54.6307 223.656 54.6307C224.81 54.6307 225.509 55.3864 225.509 56.6534V62H227.207V56.4489C227.207 54.2898 226.02 53.1591 224.236 53.1591C222.923 53.1591 222.065 53.767 221.662 54.6932H221.554V53.2727H219.923V62H221.622V56.8182Z" fill="#636363"/>
<path d="M189.599 134H191.354V129.54H193.877L196.252 134H198.246L195.667 129.227C197.082 128.67 197.803 127.466 197.803 125.966C197.803 123.807 196.377 122.364 193.934 122.364H189.599V134ZM191.354 128.08V123.869H193.826C195.246 123.869 196.031 124.665 196.031 125.994C196.031 127.278 195.286 128.08 193.695 128.08H191.354Z" fill="#636363"/>
<path d="M157.41 205L158.478 201.92H163.023L164.086 205H165.95L161.762 193.364H159.734L155.546 205H157.41ZM158.989 200.443L160.705 195.477H160.796L162.512 200.443H158.989ZM174.944 205V193.364H173.245V197.688H173.143C172.842 197.148 172.256 196.159 170.637 196.159C168.529 196.159 166.972 197.824 166.972 200.653C166.972 203.477 168.506 205.17 170.62 205.17C172.211 205.17 172.836 204.199 173.143 203.642H173.285V205H174.944ZM173.279 200.636C173.279 202.472 172.461 203.722 171.001 203.722C169.484 203.722 168.688 202.386 168.688 200.636C168.688 198.903 169.461 197.602 171.001 197.602C172.484 197.602 173.279 198.812 173.279 200.636ZM184.694 196.273H182.87L180.665 202.989H180.575L178.364 196.273H176.54L179.711 205H181.529L184.694 196.273ZM189.665 205.176C192.12 205.176 193.734 203.375 193.734 200.676C193.734 197.96 192.12 196.159 189.665 196.159C187.205 196.159 185.597 197.96 185.597 200.676C185.597 203.375 187.205 205.176 189.665 205.176ZM189.665 203.75C188.063 203.75 187.308 202.347 187.308 200.67C187.308 199 188.063 197.58 189.665 197.58C191.262 197.58 192.018 199 192.018 200.67C192.018 202.347 191.262 203.75 189.665 203.75ZM199.322 205.176C201.384 205.176 202.719 203.938 202.907 202.239H201.254C201.038 203.182 200.305 203.739 199.327 203.739C197.89 203.739 196.964 202.54 196.964 200.636C196.964 198.767 197.907 197.591 199.327 197.591C200.413 197.591 201.072 198.273 201.254 199.091H202.907C202.719 197.33 201.288 196.159 199.299 196.159C196.844 196.159 195.254 198.011 195.254 200.676C195.254 203.307 196.788 205.176 199.322 205.176ZM207.268 205.193C208.711 205.193 209.523 204.46 209.847 203.807H209.915V205H211.575V199.205C211.575 196.665 209.569 196.159 208.2 196.159C206.603 196.159 205.154 196.795 204.586 198.386L206.183 198.75C206.433 198.131 207.069 197.534 208.211 197.534C209.319 197.534 209.87 198.114 209.87 199.114C209.876 199.682 209.353 199.739 208.092 199.881C207.955 199.892 207.813 199.909 207.665 199.926C206.012 200.119 204.319 200.551 204.319 202.534C204.319 204.25 205.609 205.193 207.268 205.193ZM207.637 203.83C206.677 203.83 205.984 203.398 205.984 202.557C205.984 201.648 206.79 201.324 207.773 201.193C208.325 201.119 209.631 200.972 209.876 200.727V201.852C209.876 202.886 209.052 203.83 207.637 203.83ZM217.525 205.176C219.587 205.176 220.923 203.938 221.11 202.239H219.457C219.241 203.182 218.508 203.739 217.531 203.739C216.093 203.739 215.167 202.54 215.167 200.636C215.167 198.767 216.11 197.591 217.531 197.591C218.616 197.591 219.275 198.273 219.457 199.091H221.11C220.923 197.33 219.491 196.159 217.502 196.159C215.048 196.159 213.457 198.011 213.457 200.676C213.457 203.307 214.991 205.176 217.525 205.176ZM223.942 208.392C225.352 208.392 226.266 207.631 226.761 206.273L230.397 196.273H228.573L226.363 203.045H226.272L224.062 196.273H222.244L225.46 205.131L225.187 205.801C224.738 206.926 224.153 207.034 223.215 206.784L222.806 208.193C222.988 208.278 223.414 208.392 223.942 208.392Z" fill="#636363"/>
<path d="M279.476 196.527H274.712V191.818H272.302V196.527H267.538V198.928H272.302V203.636H274.712V198.928H279.476V196.527Z" fill="#636363"/>
<path d="M138.476 89.527H133.712V84.8182H131.302V89.527H126.538V91.9276H131.302V96.6364H133.712V91.9276H138.476V89.527Z" fill="#636363"/>
<path d="M132.022 61.9251C131.335 61.1917 130.181 61.153 129.462 61.8548C120.317 70.7744 113.147 81.5247 108.426 93.4099C103.482 105.859 101.347 119.247 102.173 132.616C103 145.986 106.768 159.009 113.209 170.754C119.358 181.967 127.798 191.752 137.972 199.477C138.773 200.085 139.912 199.904 140.504 199.092V199.092C141.096 198.279 140.915 197.142 140.115 196.534C130.374 189.125 122.292 179.747 116.401 169.004C110.218 157.728 106.6 145.227 105.807 132.392C105.013 119.557 107.063 106.705 111.809 94.7535C116.332 83.3663 123.197 73.0642 131.951 64.5115C132.67 63.809 132.709 62.6586 132.022 61.9251V61.9251Z" fill="#636363"/>
<path d="M256.06 63.9402C256.771 63.2295 257.924 63.2283 258.621 63.9531C267.471 73.165 274.288 84.1426 278.62 96.1748C283.158 108.778 284.857 122.228 283.596 135.564C282.336 148.9 278.146 161.793 271.328 173.323C264.818 184.33 256.065 193.836 245.645 201.226C244.825 201.808 243.692 201.59 243.127 200.759V200.759C242.562 199.928 242.779 198.797 243.598 198.215C253.575 191.126 261.957 182.016 268.194 171.47C274.74 160.401 278.762 148.024 279.972 135.221C281.182 122.419 279.551 109.507 275.195 97.4078C271.045 85.8797 264.518 75.3601 256.046 66.5275C255.351 65.8021 255.349 64.651 256.06 63.9402V63.9402Z" fill="#636363"/>
<path d="M211.407 115.647C212.053 115.249 212.903 115.448 213.262 116.116C215.229 119.778 216.171 123.913 215.975 128.083C215.756 132.71 214.146 137.164 211.354 140.861C208.562 144.558 204.718 147.326 200.327 148.802C195.935 150.278 191.201 150.393 186.743 149.132C182.285 147.872 178.311 145.295 175.342 141.738C172.374 138.181 170.548 133.811 170.105 129.199C169.662 124.588 170.622 119.95 172.86 115.893C174.875 112.238 177.843 109.208 181.436 107.118C182.092 106.737 182.921 107.013 183.262 107.69V107.69C183.604 108.368 183.329 109.19 182.676 109.577C179.576 111.414 177.014 114.05 175.266 117.22C173.296 120.792 172.45 124.876 172.84 128.937C173.231 132.997 174.838 136.845 177.452 139.977C180.066 143.109 183.565 145.379 187.49 146.488C191.416 147.598 195.585 147.497 199.452 146.197C203.319 144.898 206.703 142.461 209.161 139.205C211.62 135.95 213.038 132.028 213.23 127.953C213.4 124.337 212.598 120.75 210.918 117.561C210.565 116.89 210.761 116.046 211.407 115.647V115.647Z" fill="#636363"/>
<path d="M254.161 202.558L243.682 202.579C243.114 202.58 242.659 202.108 242.681 201.54L243.128 190" stroke="#636363" stroke-width="3" stroke-linecap="round"/>
<path d="M120.539 62.9171L130.884 61.2484C131.445 61.1579 131.969 61.5524 132.036 62.1166L133.41 73.5831" stroke="#636363" stroke-width="3" stroke-linecap="round"/>
<path d="M175.599 105.67L183.089 106.414C183.655 106.47 184.06 106.986 183.981 107.549L182.822 115.79" stroke="#636363" stroke-width="3" stroke-linecap="round"/>
</svg>
